<svg xmlns="http://www.w3.org/2000/svg" width="2432" height="1035" fill="none" viewBox="0 0 2432 1035"><path fill="#f297a0" fill-rule="evenodd" d="M312.3 465.2a3 3 0 0 0-.6 4.7c20 18.3 26.6 22.2 37.3 43.2 4.5 9 8.4 23.8 9.4 26.6 1 2.5 3.2 2.4 3.5 2.4.5-.1 1.7-.5 2.5-2.2 1-2.5 4.2-15.7 12-32.4 9.5-20.8 29.3-37.7 32.7-41.1q1.3-1.5 1.2-2 .2-1.1-.2-2a3 3 0 0 0-1.3-1.3 92 92 0 0 1-27.2-20.9c-15-17.6-19-45-19.8-49.5-.3-1.7-1.1-2.4-1.2-2.4q-1.7-1.2-3.2-.3c-.3.2-1.2.7-1.5 2-4 22.2-7.4 30.4-13.5 42.5a73 73 0 0 1-30.1 32.7M416.2 313.4a2.2 2.2 0 0 0-.4 3.6c15.4 14.1 20.5 17.1 28.7 33.3 3.5 7 6.5 18.4 7.3 20.6.7 1.9 2.4 1.8 2.7 1.8q.8 0 2-1.7c.8-2 3.2-12.1 9.1-25 7.4-16 22.7-29 25.3-31.7q1-1.1 1-1.5a2 2 0 0 0-1.2-2.6c-7.8-4-15.7-9.9-21-16.1-11.6-13.6-14.6-34.7-15.3-38.2q-.5-1.9-1-1.9a2 2 0 0 0-2.3-.2c-.3.2-1 .5-1.2 1.6a100 100 0 0 1-10.5 32.8 57 57 0 0 1-23.2 25.2M2350.9 429a57 57 0 0 1-23.2-25.2 100 100 0 0 1-10.5-32.8c-.2-1-.9-1.4-1.2-1.6a2 2 0 0 0-2.4.2s-.7.6-1 2c-.6 3.4-3.7 24.5-15.2 38.1a71 71 0 0 1-21 16.1q-.7.4-1 1t-.2 1.6q0 .4 1 1.5c2.6 2.6 17.9 15.6 25.3 31.7 6 12.9 8.3 23 9.2 25q1.1 1.8 1.9 1.7c.3 0 2 0 2.7-1.8.8-2.2 3.8-13.6 7.3-20.6 8.2-16.2 13.3-19.2 28.7-33.3a2.3 2.3 0 0 0-.4-3.6M2276.3 611.5a44 44 0 0 1-18-19.5 77 77 0 0 1-8-25.3q-.4-1-1-1.2-.8-.5-1.8.2s-.6.4-.7 1.4c-.5 2.7-3 19-11.8 29.5a55 55 0 0 1-16.2 12.4q-.6.3-.8.8t-.1 1.2q0 .3.7 1.2c2 2 13.8 12 19.5 24.5 4.6 10 6.5 17.7 7.1 19.3q.9 1.3 1.5 1.3a2 2 0 0 0 2-1.4c.7-1.7 3-10.5 5.7-15.9 6.3-12.5 10.3-14.8 22.2-25.7q.6-.7.5-1.5t-.8-1.3M1823.2 388.6a44 44 0 0 1-18-19.5 77 77 0 0 1-8-25.3q-.4-1.1-1-1.2-.7-.5-1.8.1s-.6.5-.7 1.5c-.5 2.7-3 19-11.8 29.5-4.1 4.8-10.2 9.4-16.2 12.4q-.6.3-.8.8t-.1 1.2q0 .3.7 1.2c2 2 13.8 12 19.5 24.4 4.6 10 6.5 17.8 7.1 19.4q.9 1.4 1.5 1.2a2 2 0 0 0 2-1.3c.7-1.7 3-10.5 5.7-15.9 6.4-12.5 10.3-14.8 22.2-25.7q.6-.7.5-1.5t-.8-1.3M1610.8 895.6a2.3 2.3 0 0 0-.4 3.6c15.4 14 20.5 17 28.7 33.3 3.6 7 6.5 18.4 7.3 20.5.7 2 2.4 1.9 2.7 1.8q.8.2 2-1.6c.8-2 3.2-12.1 9.1-25 7.4-16 22.7-29.1 25.3-31.7q1-1.2 1-1.6a2 2 0 0 0-1.2-2.5c-7.8-4-15.7-9.9-21-16.1-11.5-13.6-14.6-34.7-15.3-38.2q-.5-1.9-1-2a2 2 0 0 0-2.3-.1c-.3.1-1 .5-1.2 1.6a100 100 0 0 1-10.5 32.7 57 57 0 0 1-23.2 25.3M897.8 455.2q-.7.5-.9 1.3 0 .9.6 1.5c11.9 10.9 15.8 13.2 22.1 25.7 2.8 5.4 5 14.2 5.7 15.9a2 2 0 0 0 2 1.4q.6.1 1.5-1.3c.7-1.5 2.5-9.3 7.1-19.3 5.8-12.4 17.6-22.4 19.5-24.5q.9-.8.8-1.2.1-.6-.1-1.1t-.8-.8a55 55 0 0 1-16.2-12.5c-9-10.5-11.3-26.7-11.8-29.4q-.5-1.5-.7-1.5-1-.7-1.9-.2-.5 0-1 1.3a77 77 0 0 1-8 25.3 44 44 0 0 1-18 19.4M221.7 782.8a1.7 1.7 0 0 0-.3 2.8c11.9 10.9 15.8 13.2 22.2 25.7 2.7 5.4 5 14.2 5.6 15.9a2 2 0 0 0 2 1.4q.8 0 1.5-1.3c.7-1.6 2.6-9.4 7.2-19.3 5.7-12.4 17.5-22.5 19.5-24.5q.7-.9.7-1.2.1-.7-.1-1.2t-.8-.8A55 55 0 0 1 263 768c-9-10.5-11.3-26.8-11.8-29.5-.2-1-.7-1.4-.7-1.4q-1-.7-1.9-.2-.4 0-.9 1.2a77 77 0 0 1-8 25.3 44 44 0 0 1-18 19.5" clip-rule="evenodd"/><path fill="#d56989" d="M2125.5 349.9c20 .4 35.9 16.9 35.5 36.9q-3 147.8-3.6 295.7a36.2 36.2 0 0 1-72.4-.3q.8-148.5 3.6-296.8c.4-20 16.9-36 36.9-35.5"/><path fill="#f297a0" d="M2143.5 327.3c20 .4 36 16.9 35.5 36.9q-2.8 147.8-3.6 295.7a36.2 36.2 0 0 1-72.4-.3q.8-148.5 3.6-296.8c.4-20 17-36 37-35.5"/><path fill="#f297a0" fill-rule="evenodd" d="m2062.4 236.6.2-.1v.1zm.4.6h.2l-.1.2q0 0 0-.2m.2-6.6-.2.2-.1-.2h.2q0 0 .1 0m0-10.5v-.1l.3.1v.2zm0 .8.2-.2.2.2-.2.2zm.3 6.1v-.2l.2.1v.2zm.3-1.3.2-.2h.3q0 .3-.3.4zm.1.7.7.2zm.6-5.3h-.2zm-.4-5q-.1.2-.2.3l-.1-.2.2-.2zm1.1 10.7.3-.2v.3zm.5 16.5c.4-.4.4-.4.9-.5l-.4.5zm.6-10.6q-.2-.4.2-.6l.9.3q-.6 0-1.1.3m.9-4.4h-.2v-.2h.1q0 0 0 .2m-.5-4-.2.3-.2-.2q0 0 .3-.4zm-.2-3.6-.2.1v.3-.5zm-.4 6.8v.1h-.1zm-.6-17.5h-.3l.2-.1m2 4.7.1-.1.2.1-.1.2zm.8 32.6q.5.4.5.6v.3q-.3.1-.5-.1zm.4 3.3.2-.2.2.1-.1.3zm.2-15-.5.3v-.2l.3-.3h.2zm-.3-16.7h.2q0 .2-.2 0m.9 32.7v.2zm.1-1.3.1-.2.2.1v.2zm0-19.4h-.2l.1-.2zm0 5.5h.2zm.6 15.5h.2q0 0 0 .2zm-.3-28.6h.2v.1zm.5 12.7q.3-.1.3-.2l.2.2q0 .3-.2.2zm.3 8.1 1.8-.9-.4 1.2c-1 .1-1 .1-1.4-.3m.2 1.6q0-.2.3-.5h-.2v-.2l.2.2h.6c-.4.7-.4.7-1 .5m.6 3.5.2-.1v.2h-.1zm1 1.7h.2q0 .3-.1 0m.1-6.7v-.2h.1v.2m-.3-2v.2q-.2.3-.5.2v-.3zm.3-4.2-1.1-.6.7-.2zm-.7-36h-.2l.1-.2h.2zm.1 18.5h.1-.2zm-.5-23h-.3v-.3l.3.1zm.1 25 .3.1-.2.2h-.2zm-.6-.5.2.1v.1h-.2zm-.2 2.1.2.1h-.2m-.4-5.3q.6 0 .5.4l-.2.1zm.8-9.1c-.2.3-.7.2-.8.7l-.3-.1q-.5-.6 0-1.2l.3.3zv-.2zm-.5-.9q-.1-.3.2-.4h.2q0 .5-.4.4m-.8-9.8-.1.2h-.2q0-.2.2-.3zm-.2 12.8-.2.1zm-.1 1.9-.1.1h-.2v-.2zm-.3-3.4-.2.2v-.2zm-.4-1.8v.1h-.2zm.3 20.8.1.1v.2l-.3-.1zm-.9-16.2-.2.2.1-.8q.3.3.1.6m0-1.5-.2.2v-.2zm.2 19.5h.2l-.2.2-.1-.1zm-.3-7.2v-.1h.2zm4.2 8V220h.2v11.6zm.5 11.7.1-.1v.2zm.7-10 .1-.3.2.2-.2.2zm-.2-19.7-.1-.4h.2q.3.2-.1.4m1 44.8.3-.1v.1l-.1.2zm-.4-38.5v-.3.3m1.2 46.2.3.1-.1.1h-.2zm-.8-50q0-.2.2-.5.1.2.2.3 0 .3-.4.3m-.4-8.4h.1v.1m.2-5.7.1-.1zm.2 8.6-.1.2-.2-.2v-.2q.2 0 .3.2m-.2-9.3q-.5-.2-.9-.2l-.4-.4 1.6.2q0 .5-.3.4m-.4-11.3h.1l-.1.2-.2-.1zm0-.6q-.3-.4-.6 0-.3 0-.5-.3l.6-.8q.9.3 1.5 1-.5.4-1 .1m2 55.8v-.2h.1l.2.3v.1h-.3zm.3 3 .1-.1h.2l-.2.1zm.3 11.8v-.2h.2v.3zm-.6-41h.2l-.2.1m1 46.8h.2v.1l-.1.1q0 0 0-.2m.2 3.8h.4v.1h-.4m-.8-36.3h.2v.3h-.2zm0-18q0 .3-.4 0v-.6l.7-.5c.4.5 0 .8-.2 1.2m.3 12.5q0 .1 0 .2zm.1-7.5.1-.2h.3l-.1.2zm.5 8.9.2-.4.2.4-.2.2zm.7 26.2.2-.1v.2h-.2m.3-8.1-.2-.1v-.2l.2.1zm-.6-30.7v-.2l.3.2-.2.1zm.2 8.1.1-.2.3.2-.2.2zm1 46v-.1h.2v.3zm-.7-43h.2zm.7 29h.2l-.1.1m.4 3.5v-.1l.2.1zm.4 11.5.3-.2h.2q0 .3-.3.4zm.4.8v-.1h.2v.1zm-1.5-87.7.2-.1-.1.3zm.3 15 .3-.1.2.2h-.4zm1.8 72 .1-.2h.2l-.1.3zm-.6-41.6.1-.2v.4zm1 38 .1-.3.2.3-.1.1zm0-28.5q-.2 0-.3-.2v-.2q.3 0 .3.2zm-.9-49.1-.3-.2.2-.2q.3 0 .3.2zm.5 18.2h.2v.6h-.1q-.3-.4 0-.6m0 4.3.2-.3.2.3-.1.1zm.3 10.4v-.3l.3.2-.1.3zm.9 33.3.2.2-.1.1h-.2zm-1-66.7v-.2l.2-.2.3.1-.1.3h-.5m1 38.8h.2zm1 42 .1-.2.1.1zm-1.2-69.8-.2-.1zm-.3-9.8.9.5v.3h-.1l.1-.3-.5.1q-.3.1-.4-.6m.6 20q0 0 .2 0t.1.4q-.3 0-.3-.4m.3 5.7v-.1h.1zm1.2 52 .2.1-.1.2-.2-.1zm-.4-27.7-.1-.2v-.1h.2zm-.3-22.1h-.2v-.2h.3zm1.3 59.7.2-.1v.3h-.1q0 0 0-.2m-.3-26.9.1-.2.2.1zm-.4-33-.1-.2h.1zm1.3 61.3v-.4l.2-.1v.2zm-1.2-70.7q-.1-.3.2-.3l.2.3-.2.3zm.2 5.5.2-.1v.2zm.1-17.3q-.1 0-.2-.2l.1-.2.4.1v.2zm1.4 64.6.1-.2v.2m-.5-33.7v-.1h.1v.1zm-.2-18.2c.3-.4-.5-1 .3-1.2v1zm.3 4.6v-.2h.2v.2zm.5 13.8.2-.3.2.3-.2.2zm1 36.8h.2l.1.1q0 0-.2 0m-1.3-77.6h.2l-.1.1zm.8 26.8h.2v.1l.2-.2v.3l-.2.1h-.2zm1.3 58.8.2-.1.1.1-.2.2zm-.6-43.3-.2-.1.1-.2zm.8 36.2v.3l-.3-.3.1-.1zm-1.4-68.1.2-.1v.2h-.1zm.3 6.8v.1m.5 24.3.2-.1v.2zm1.3 50.8.2-.1v.1l-.2.2zm-.2-23.7h-.1v-.2h.2zm.1 1.5c.1-.5.5-.2.8-.4 0-.7 0-.7.3-1v.6q1 .3.4 1l-.4.5h-.2l-.2-.6-.3-.1zm.5 13.7.2-.1v.2zm.4-1.8v-.2zm.2 5.5.2-.3h.1q.2 0 .2.2v.2q0 .2-.3.1zm.5-5.4.5.5q-.8.1-.5-.5m.4 5.8.2-.2.2.1-.3.2zm0-16.7-.3-.1.1-.2.3.1zm.2-1.3h-.2q.1 0 .2 0m-.3-.6-.1-.2.6-.3.4.3q-.4.5-.9.2m.6-19.2h-.3q.1.3-.1.5-.3 0-.6-.2.3-.4.7-.3h.2m.8 28 .1-.1h.1zm.1 4.3h.2v.1zm.3-16v-.2l.3.1h-.3m-.2-20-.2-.1.2-.2.1.1zm.7 29.7h.2v.1zm.6 8q0-.4.3-.3l.2.2-.3.3zm-.6-56.8-.2-.1v-.4h.2v.5m-.5-27.9-.2-.1v-.2l.3.1zm.1.8q0-.6.4-.7l.3.1v.3zm.6 26.2zh.1zm1.3 61.5h.3l-.1.1zm0-16.3h-.3q0-.3.2-.3h.2q0-.4.3-.6.1.4-.2.6zm1 17v-.3h.2v.4zm-.2-27.7-.1.1-.3-.1.2-.2zm-.8-28.3-.3-.1.2-.3q0 0 .3.2 0 .2-.2.2m-.1-14.2.2-.2.2.3-.2.2zm0 .9q0-.3.3-.3l.2.1-.2.3zm.5 8 .1-.1v.2zm.1 1.6v-.1h.2v.1zm1.5 67.3q.2-.7.5-.6h.1q0 .5-.6.6m-.7-65.3v-.1h.1zm.9 35.8v-.2l.3.2zm-.4-37.4v-.2l.3.1v.2zm.6 22.2.1-.1zm-.6-32v-.3l.2-.4v.6zm1 47.1h.3l-.2.2zm-.6-44 .1.1.4-.2q.4-.3.5.1v.2l.4-.2h.2v.3q-.4.3-.6-.1h-.8zm1 11.2.2-.2.2.1v.2zm1.2 43.6.3-.1h.5q-.4.7-.7.3zm.2-19.4v.3q-.2 0-.1-.2zm.2-2.8h-.3l-.1-.3.2-.3.2.3zm-.6-25.3.3-.2v.3l-.1.1zm.5 9.7.2-.4h.1v.5zm.6 18.1v-.1h.2v.2zm.3 16.1h.1m-1.2-77-.2-.1h.2zm.3 13.5v-.1l.2.1-.1.1zm.4 8.5v-.2l.1.1v.1zm.4 21.4.1-.2h.2l-.1.3zm.8 16.3v-.1h.2v.2zm-.9-52.5h-.2zm.5 16h.2v.3l.8-.5q0 .7-.2.7t-.5-.2h-.3zm.6 28.8.2-.3.2.2-.2.2zm.2 6.3h.2zm-.5-33 .2-.3.2.1-.1.2zm.3.9-.2-.3h.1l.2.1zm.1 11.2.1.1-.1.1-.1-.1zm-.2-4.4v-.2l.2.1v.1zm.8 11.9h-.1v-.2h.1zm-.2 11q-.3-.5 0-.6t.5.2zm0 3.3.2-.1v.1zm.3-16.5.3-.2-.1.3zm.2-6.5v-.2h.1zm.2-2.9-.3-.1.2-.2h.2q0 .3-.2.3m.4 19 .1-.2h.2l-.1.3zm.2-9h-.3q.1-.2.2-.3l.2.1zm0-8.3-.4-.4c.4-.4-.1-.8.2-1.2.4.8.4.8.2 1.6m0-2.2.3-.2.2.1q0 .1-.2.2zm.1 3.6h.3l-.1.1zm.4-2.3zh.1v.2zm-1.1-63.1-.2-.2h.3zm.8 31q.4-.6 1-.6l-.1.5zm.2 3v-.2h.2v.2zm.8 36.2v-.2h.3v.2zm.3-4.5-.2-.3h.2l.1.2zm1.2 52.8.1-.1h.1zm-.6-45.3-.2-.2q0 0 .3-.2v.3q0 0 0 .1m0-.9.2-.2.2.1v.2zm.7 31.8h.1v.1zm.6 13.1v-.2l.2.2-.1.1m-.8-41.1v-.2h.9v.6zm1-9.2h.1zm.3 13.7q.3-.1.6.2-.3.1-.6-.2m.3-18.6.2-.1.2.1v.2zm.2-10.8h-.1v-.2h.2zm.2-16.2.2-.2.2.1-.2.2zm1 36.3v-.1h.2v.2zm.3 8.3.1-.1h.1zm-.5-42.3.1-.1h.2l-.1.2zm.8 26.6v-.1l.3.1-.1.2zm.3-2.6h-.3l.2-.2h.2zm.1-.9.2-.3h.3v.2l-.3.2zm.3 3.3v-.1h.3l-.1.2zm-.2-24.8-.2-.1.2-.1zm0-.6-.1-.1.2-.2.2.1zm1 38v-.2h.1zm.1-7.5h.2v.1zm.4-3.3.2-.1v.3q-.2 0-.2-.2m.1 2.1h.2zm.3-3.2v-.2h.4v-.3.2q0 .2-.2.3zm.5-1.9h-.2l.1-.1zm.4 14.3.3.1-.2.2-.1-.1zm-.1-25-.2.1v-.2l.3-.2h.1zm.8 25.4v-.2l.2.2v.2zm.5-27.2h.3l.1.1v.1zm.5 15.4q-.1-.3.5-.5l-.3.3zm.4-1h-.2v-.2l.1-.1zm-2-19.6h-.2l-.2-.2.3-.1q.1 0 .1.3m-1 16.3-.3.7-.6-.4q.4-.5 1-.3m-.6-19.8-.3.3-.3-.2.4-.4zm-.7-2zh-.2v-.2zm-.2-2-.1.3-.1-.1v-.2zm-.3 15.3-.1.2-.3-.4v-.1q.4 0 .4.3m-.2-3v.2l-.1-.1zm0-1.5-.3.2v-.2l.2-.2zm-2.3-5.6q-.3.1-.4-.1l.1-.2zm0 34v.2h-.2v-.2zm-.5-13.6v.3l-.2-.3zm.1-3.3-.2.2-.1-.1.1-.2zm-.4-16.5-.1-.1zm-.1 30.6v.1l-.3-.1v-.2q.3 0 .3.2m-.7-14.7-.1.1-.4-.1.1-.2q.4 0 .4.2m-.5-15.3v.2h-.3q0-.2.2-.3zm-.2 10.5h.2v.1h-.1m.8 16q-.5.3-.6 0zm-1.3-37.6v.2l-.3-.1v-.2zm-.3-1.2h-.2q0-.2.1-.1zm.2 23.9.2-.2.2.1-.2.3zm.2 6.8.1.2-.3.2-.1-.2zm-.8-12.4v-.2h.2v.3zm.2 11.3h.1v.1m-.3-8v-.3q.3 0 .3.2l-.1.4zm.6 7.1h.2zq-.3.2-.4-.1l.2-.2.1.1zm-1.7-30.2q-.5.2-.8-.2c.5-.2.5-.2.8.2m-.3-.7-.1.1v-.2m-.4-15.6-.2.2-.2-.2zm-.1 13.9h.2zm1 11.8zm.3 14v.2l-.2-.1zm-1.4-14q.5 0 .3.3.7.2 1 .8l-.1.2h-.2q-.6-.2-.6-1-.3 0-.4-.4m0 21.3v.2l-.2-.1zm-.1-.5q-.2-.6.6-.6zm-.3-21.5-.2-.1.1-.2h.2zm.4 7.6.3.1-.1.3-.4-.2zm.5 5.5-.2-.2v-.2h.3zm.2 2h-.1v-.2h.1zm-.1-11.6-.1-.4q.2 0 .3.2zm.7 18.6-.3.3-.2-.2.3-.2zm-.5 9.6v.3h-.2q0-.2.2-.3m-.3-10zv.2zm-.7-22.5h-.3l-.4-.3.4-.1.4.1zm-.5-7.2.1.2h-.2zm0-4.8h-.1l-.1-.2h.2zm-.4-3.6v.1q-.3-.2-.1-.4zm0 17.9h-.1v-.1m-.2 7.6h.1v.2h-.2zm-.3-24.9-.4.3-.1-.3q0-.3.2-.2zm-.8-9.2v.1l-.3-.1.1-.2zm.1 13v.1l-.2.2-.2-.2zm.3 7.3h.2v.1zm.2.8-.9-.2c.4-.3.4-.3.9.2m-1.6-29.3v.2h-.2v-.1zm.8 50.3h-.1l-.1-.2zm-1-43.4h-.2v-.2zm-.2 1.6.1.1h-.1m-.1 4.2-.1.4-.3-.1.2-.4zm-.2-1c-.5.4-.5.4-1 .2q.5-.6 1-.2m-1-12.7h-.3l.1-.2zm-.2 18.2.8-.6q-.1.6-.5.8h-.2zm1 30.5-.2.2-.1-.1zm0-12.8q.1.2 0 .4l-.2.1q-.3-.1-.1-.4l.1-.2zm-.4-15.4.2-.1v.1zm1.5 18h-.2l.1-.1m.2 4.7.2.2-.2.1-.2-.2zm-1.2-25.5q.8-.2.6.7-.5-.2-.6-.7m.7 29v-.3h.2v.3zm-.6 6.4h.2zm1 6.6-.3.6-.1.1-.2-.2q-.2-.4.6-.5m-.6-13.9q-.4 0-.4-.2l-.1-.6-.5-.7 1 .2v-.3h.5l-.2.3h-.3l.4.7zc.2 0 .5-.2.5.3zm-1.3-15v.1l-.2-.1zm0 11.8-.4.5q.4 0 .4.4t-.6.1l.2-.5q-.4.1-.4-.4zm-1-39-.2.2v-.2l.1-.1q0 0 0 .1m.4 19.4v.1zm-.3-7h.2v.3h-.3zm0-2.6-.3.2-.1-.2.3-.2zm-.5-13.3h-.4v-.1h.4m-.2 1.4q-.6 0-.7-.3zm-.2 8.8h.5v.2h-.3zm-.1 1h-.1v-.2zm.2.5v.2h-.2q0-.2.2-.2m-.2 10.2q.5-.6.6 0zm.3 21.7.2.3h-.1zm.2 9v.4l-.3.1v-.7zm-.1-5.4.2-.1v.3zm-.2-22-.1-.1h.2zm.6 24.7q-.4-.2-.3-.6.7.2.3.6m-.9-20.7-.1.3h-.5l-1-.3q.4-.2.6-.3h.8zm-.6-2.3h.1l-.1.2-.2-.2zm-.1-15.6h-.5v-.2l.4-.3q.1 0 .3.2 0 .3-.2.3m-.6 9h.3l-.2.3-.4-.2zm-.2-3.3-.1.1h-.1zm-.4 13.3.2-.1h.1l-.1.2zm0 3.4v-.2q.3-.2.5 0 0 .2-.3.2zm0 8.1.3.1-.1.1zm.4 13.8v-.2h.2l.1-.2h.1v.1h-.2v.3zm1.1 35.8h-.2l.2-.1m-.7-31.3v-.1zm.5-3.7-.1.2-.3-.2.1-.1zm0-7.5q0 .8-.3.7c-.4 0-.2-.4-.3-.6l.1-.2zm-.2-.7.1.1h-.2zm-.7-16.2h.4l.1.3h-.3zm.5 28.8-.2-.2.3-.2h.1zm1.1 32.8h.1v.1zm-.2-2.5-.2-.2h.3zm-1-69.6q.3.2.1.7c-.4-.2-.8 0-1.1-.4v-.4q.5-.3 1 0m-1-15.5v.1h-.2l.2-.3zm0 14.5h.2l-.2.2h-.1zm-.5-13.8q.3 0 .4.3h-.2l-.3-.1v-.2zm0 4.8q-.5.4-1.2.5l.3-.5.3-.7q.6.3.5.7m-.5-10-.1.2-.1-.1zm-.6 17h.3l-.2.4h-.2q-.2-.4 0-.5m-.2-7h-.2l.1-.1zm0 4v.4l-.3-.2zm-.5-7.9-.2.4-.2-.2.3-.2m-.4 11.5v.1zm-.1 2.8v.2h-.2zm-.1 5.1-.3.6-.5-.2-.1-.3.2-.2q.3-.2.7.1m-1-7.8-.1.1zm0 8.7v-.2h.2l-.1.3zm.6 18.4.2-.1h.1v.2zm-.1-13.7-.2-.3.4-.3v.2zm.3 2.4zh-.2v-.1zm.6 15q-.1-.4.2-1c.1.8.1.8-.2 1m.3 2.6.3-.4.3.4q0 .3-.4.3-.2 0-.2-.3m.4 4.3-.1-.1v-.2l.2.1zm0 .8-.2-.1q.1 0 .2 0m1.1 17.4q-.6.4-.6 0 0-.2-.2-.5l-.1-.2c.3-.3-.1-.6 0-1q.7.2.6.6t.2.7zm-.6-28.5zh.1zm-.2-1v.3-.3m-.2-3.8.2-.2.2.2v.2zm-.3-2 .2.2-.2.1-.1-.1zm-1-8.6h.3l.3.2q-.3.2-.4 0zm.3 11.1h.2v.3l-.2-.1zm-.3-9-.1-.3h.2v.2zm.6-11.8v-.2l.1.1zm.3 8.5-.2.2-.3-.3.3-.1zm1 2-1-.1v-.4q.5 0 1 .6m0-7.4.1-.1zm.3.8v.3h-.6q.2.8-.3.8 0-.6.3-.8zm-.8 2.5.1-.8.8.6a1 1 0 0 1-.9.2m.6 4.6.3-.2.2.2-.2.3zm.8 22.8v.2h-.2v-.2zm-.3-21.8-.2-.3.2-.1.2.2zm.4 17.8-.2-.2.2-.2h.1q.1.3-.1.4m-.8 6v.1h-.2zm-.3-3.4.1-.1.2.2-.2.1zm-1.5 18 .2.1-.2.1zm-.5-23.5q.7-.7 1-.3 0 0 0 .2v.1zm.8 31.5q-.1 0-.1-.3t.2-.6q.3.4.1.7zm.6 15h.1v.2zm0-2.4h-.2v-.1zm-1.5-26.5.1-.2h.2l-.1.3zm-.1 3.9h-.5l-.3-.4.8-.3q.3.4 0 .7m-.6-21.2h-.2.1m-.9-24.7q-.2.5-.6.7-.2-.6.6-.7m.4 31.4zl.2-.1zm0 8.8-.2-.3q0-.3.3-.2l.2.3zm.2 6h.2v.2zm.1 2.2.1-.3q.3 0 .4.2v.3zm.6 11.2-.2-.2q.3 0 .4-.3l.1.2zm.6 10h-.1zm-.4-14.6-.2.2-.2-.2.3-.1q0 0 0 .1m-.4-7.4q.4-.5.7 0-.3.4-.7 0m1.2 16.7.2.2-.2.2h-.3q0-.3.3-.4m-.5-4.6.1-.2.2.2-.1.2zm-1.6-7.5q.9.6 0 1zm-1.3-49.2q-.4 0-.6-.3l.3-.5zm-.4-7-.1.2h-.2v-.2zm-.4 2.7h.4l-.2.1zm-.1 2.4.4.2-.3.3-.4-.3q.2-.2.3-.2m0-6-.2.1q-.1 0-.2-.2l.2-.2zm1 33.1v.1h-.2v-.2zm-.2-18.5h-.3zm-.5-5h.1v.1m.6 1.3h-.2q-.2 0-.2-.3v-.1q.3 0 .4.2zl.2.1-.1.1zm-1.2-5.5-.2.1-.2-.2.2-.1zm-.7-11.8q-.2 0-.2-.2l.1-.2.2.3zm.5 15.8-.1-.1.2-.1v.1zm.7 22.7q0 .3-.3.3l-.2-.2.3-.4zm-1-32.3-.4.6q-.3.2-.5 0-.3-.1-.2-.5c.2-.3.3 0 .4 0zm-.8-7v.2h-.2v-.2zm.5 14.7v.2l-.1-.1zm-1.1-.7.8-1h.4v1.3l-1 .3q-.5-.3-.2-.6m-.1 3 .1.2v.1h-.2zm.2 18.4h-.2l.1-.1zm-.1 9.7v.3l-.1.3h-.2v-.5zm-.6-18.7.1-.1q.2 0 .3.2l-.2.2zm-.3-17.7h-.2v-.1l.1-.1zm-.1 6.2v.2h-.3v-.2zm-1.4-.8h.1v.2h-.1zm.3-5.5v.1q-.2.2-.5.1 0-.4.4-.2m-.3 12 .1.1h-.2zm-.4-6.8h-.1zm-.4-3.4q-.2.3-.5 0 0-.4.4-.2 0 .1 0 .2m0-2.2-.1.1h-.2v-.2zm-.2 20h.2l-.1.1m.3 14.5.2-.3.2.2-.2.2zm.4-8.5h-.1l.1-.3.2.1zm.2 16.6-.2-.3q-.2-.5.4-.4.1.3-.2.7m-1.5-45.5zh-.2v-.2zm-.4 7.9h-.1q0 0 0-.1v-.1zm-.5-4.4h-.2v-.1h.2m.2 20.8h.1v.1zm-.1 1.7-.1.1h-.1zm-.7-23-.1.1h-.1v-.1zm-.1 2h-.2zm0 12.5-.7.3.1-.9.3-.1zm-.4-2.2h.1zv-.2zm0 14v.2l-.2-.2.1-.1zm-.2-6.3-.4-.2.3-.2.3.1zm.3 4.7h.2l-.2.2-.1-.1zm-.2-3h-.2l.2-.3.1.2zm-.5-.3v.2zm-.2-.7q0-.1 0-.2 0 0 .2 0l.3.2-.3.2zm.3-4 .2.2v.2l-.8.2.3.3h-.2v-.3l-.1-.1q.2-.4.6-.4m0 0h-.7l.1-1h.5zm-.5-1.6.2.1h-.2m.4-4q-.6.5-.9 0-.2-.2.1-.4zm-.8 8.8v-.2l.1.2zm.1 1.3v-.2l.3.1v.2zm.3 10h-.1v-.1zm-.6-19q-.3.1-.4-.2v-.1q.4 0 .4.2zm0 19v-.1h.1zm-.2-15.7-.1-.2h.2zm.4 16.1-.3.2v-.1zl.1.2v.3h-.2v-.6m-.2-21.4q0 .2-.3.1l-.1-.8h.3zm-1.3-3.6h-.2v-.2zm-.4 11.9.1.1h-.1l-.1-.1zm-.8-7.9q.3-.1.4-.5l.6.8q-.5 0-1-.3m1 37.5h-1v-.2q.4-.3 1 .2m-.4-26.5.2.4q0 .3-.2.3l-.2-.2q0-.3.3-.5m.1 18.6v.2zm32.7 47.6.1-.1h.2q0 .2-.2.2zm.8 1.7.1-.2.1.1zm1.1.5q.2 0 .3-.2 0 .1 0 .2v.2zm.4-1.2v-.2l.1.1zm6.4-50v-.1h.1v.1zm.6 3.1v-.1l.2.1v.2zm.1-17.1.1-.1h.1zm.3 14.5h.3zm.3-5.5.2-.2.2.3-.2.1q-.1 0-.2-.2m1.4 3.7v-.2h.2v.3zm1.5 2.3h.3v-.4h.1v.4l-.3.1zm.3-7 .1-.2.2.2-.2.1zm1 3.5h.1v.2zm.8-.7v-.1h.2v.2zm.4-8.7.5-.5q.3-.4.5 0c-.3.4-.3.4-1 .5m.3 11v-.1h.3l-.2.2zm.1 5.6q0-.3.4-.4v.2q0 .6-.2.4zm.4-6.8-.3-.4q.4-.5.7-.3.2 0 .2 0h-.1v.5q-.1.3-.5.2m.5 6v-.1h.2v.2zm0 1.2.2-.6 1 .1q.3 0 .2.6l-.7-.1c-.2 0-.4.3-.7 0m.2 1.2q0-.2.2-.3l.2.1q0 .1-.2.2zm1.2-3.2.1-.1.1.4q-.3 0-.2-.3m0-9.2v-.2l.1.1m.3 8.4.4-.6q.1.8-.4.6m.3-3.6-.2.1-.2-.3q.2 0 .2 0 .1 0 .2.2m0-1.5-.2-.2.2-.1h.2q0 .1-.2.3m.2 4 .1-.1v.1q0 0 0 .1zm0-6 .3-.2.3.3q-.1.3-.2.3-.4 0-.3-.3m.6 1.3v-.2h.1zm.5.4.1-.1h.1v.1zm.3 6 .3-.3v.2l-.2.2zm.1-13.4-.1-.4q.4 0 .3.2zm-5.5 6.6v.2zm5.8 4.4v-.1h.2v.1zm.3 1.5.1-.1.2.1-.3.2zm.3-4.4h-.2v-.2h.2zm.4 2.2h.6v.4l-.7.2q-.3-.5.1-.6m.4 1h.1v.1m.2-.6v-.3h.2v.5zm.7 1.1.2.2-.3.2h-.2q0-.3.3-.4m.2-.5v-.1h.2v.2zm0-4.6v-.5l.6.4q-.3.4-.6.1m.7-3.6h-.2v-.1h-.1v-.4h.4v.4zm-.1-9-.3-.4h.1q.1 0 .3.2zm.4 12v-1.5h.7l.2.9zm.9 4 .3-.2.2.2-.3.2zm.2-3q.6-.2 1 .2.3 0 .2.4c-.6 0-.7 0-1.2-.6m.5 2v-.2zm.2-.7-.1-.1v-.2l.2.1zm.3.7q.1-.5.5-.8l.4.6c-.4 0-.5.4-.8.2zm.8-1.8.2-.4q.5.1.6-.4h.4l.2.3-.2.5q.1.2 0 .5-.4-.2-.7-.5-.1.2-.5 0m.3 1 .2-.2.2.1-.2.3h-.2zm1-2.5h-.1q-.1.1-.2 0 0-.2.2-.1zq.4-.1.3.4zm.1-.8v.2zm.3-5.7c-.3 0-.6.3-1 0v-.6.6q.3-.3.7-.1zh.3v.3l-.1.1zm0 5.4.8-.2q.3 0 .3.4l-.8.2q-.3 0-.2-.4m.5 2v.5h-.2q0-.2.2-.5m.3-.5.2-.1.4.2h-.6m.3-8v-.2h.4l-.1.3zm.3 6.2.2-.2q.3 0 .2.3l-.1.1zm.3.7.1-.1q.1 0 .3.2l-.1.2zm.4-1q.2-.1.3-.2h.2q0 .3-.3.4zm.3.7zm.4-.1h.2v.2h-.2zm.2-10 .2-.4.2.4-.2.2zm-.6 3.8v.1l-.1-.2q.2 0 .1.1m-1.2 7h-.5l.2-.2zm.5-8.2h-.7q0-.7.4-.6.4.2.3.6m-.4-1.4h-.3v-.1zm-.6 1.2-.3-.1.2-.2.1.1zm-.2-6.7h-.1v-.1zm-.3 11.6h.2l-.2.3h-.2q0-.2.2-.3m.2-3.3q.3 0 .2.4l-.5.2q.4 0 .4.4l-1 .5-.6-.7q-.4-.1-.7-.6l-.7.8-.2-.5q.2-.9 1-1c0-.8 0-.7.9-1l-.2-.5h.2v.5q-.5.6 0 1.2l.3.3zm-.5-1.8-.2.2v-.2l.1-.2zm-.4-2.2-.1.1h-.2l.1-.2zm-1.2 1h-.3l.4-.3.1.1q0 .3-.2.3m-.4.4v.2h-.2v-.2zm-1 1.6h.9v-.6q.3-.3.4 0l-.4.7q-.3.6-1 1v-.6zm1.3 3 .2.8q-.6-.1-.7-.5-.2 0-.2-.3 0-.4.2-.7l.3-.2.7.4.1.4zm-1.4 5.6h.4l.5.4v.4q-.2 0-.3-.2-.3-.3-.1-.6l-.4.5q-.5-.3-.1-.5m-2-13.7-.2.2-.2-.3.3-.2zm-.6 16.3h.2q0 .2-.1.1zm-.2-.8v.1zm.5-6-.1.2.2.3-.2.4-.7-.6.3-.2.4.1v-.1q0 0 0-.2zm-1 3v.1zm-.3-14.2h-.2zm-.2 17h-.2v-.2zm-1.4 0 .1.1zm0-3.3v.2zm-1.3-4.3h-.2l.1-.2zm-.4 5.5-.1.1h-.2l.2-.2m-.3-7.1-.3.1v-.1l.1-.2zm-.5 3.6h-.3l.1-.1zm-.5 5-.2-.2.1-.1h.2zm-.7 4q0 0 0-.1v-.2l.1.2zm.6 2.3-.3.2h-.2l.4-.4zm-7-17-.1.1zm23.3 6.6.2-.2.2.2-.1.1zm.8-13.2zv.1zm1.8 10.8h.2l.1.2h-.2zm.2-10.6.3-.1v.3h-.1zm.3 7.3zv.2zm.5.6h.1zm1.7-12.2.2-.2h.6q-.2.3-.6.3zm1.2 12.8.2-.3.2.2-.3.3zm.7-8.8h.2l-.1.2zm.6-5 .3.1-.2.4zm.6 17h.1v.2zm.1-12.6.2-.3h.2v.3zm.3 6v-.1h.2v.2zm0-9-.2-.1zm1 15h.3v.2h-.2zm0-11.6c-.2-.5-.2-.5.3-.8q0 .6-.4.8m-.3-4q0-.1 0-.2l.1-.2 1 .5zm1 7.8q0 0 0-.2l.2.1zm.8.4.1-.1v.1m.3-1.7-.3-.2.8-.4v.3zm1.3.5-.4.6q-.2-.7.4-.6m0-5.4h.2l-.2.1zm.3 8 .2-.2v.3zm.6 9.7v-.2h.3v.2zm-.1-19v.1h-.2v-.1zm-1.8-5.6v.1h-.4l.1-.1zm-.2 10.6zl-.2-.1.2-.1m2.3-5.4q.2-.3.5-.2 0 .3-.5.2m.2 8 .5-.4h.2l-.1.3zm.8 11.1.7-.3q0 .7-.7.3m-.5-58.9-.1.2-.2-.2.1-.1zm1 43.9.3-.3.2.1-.1.4zm.7 20.3v-.2h.1zm.2-3.2-.2-.2h.2l.1.1zm-.4-13 .4-.5h.2v.3q-.3.3-.6.2m.4-7.7q-.4-.3-.2-.7h-.2.2c.2.3.5-.2.7 0zm.2.6.2-.2.1.2-.2.2zm.1 2 .2-.2.1.3v.1zm.5 21.5.2-.1zm0-11v.2h-.2zm-.2-3.7v-.2h.2zm.3 15.4.3-.2.2.5h-.3zm-.4-47.7-.2-.2.2-.1.1.2zm.7 30.7.3-.2h.1l-.3.3zm.3 9.3.3-.1v.1l-.1.2zm-.4-40.1-.1-.1.1-.2v.3m-.2-13.4h-.2v-.3h.3zm.1-1.1h-.1v-.2l.2.1zm-.3-4.6.6-.2q.3.3.4.4.4 0 .3.3l-.7.3q-.5-.2-.6-.8m1.4 48.5v-.1h.2zm.2-3h-.2l.1-.2h.2zm.4 18.6v-.1h.4l-.1.2zm-.6-40zm-.6-16.3zv.2l-.2-.1zm-.2-1.8v-.1q-.1-.5.2-.6h.6l-.3.4zm1 16.9c.2-.3.4 0 .6.1v.3q0 0-.2 0-.5 0-.5-.4m.3 12.1h.2v.1zm.8 17.4h.2v.2zm.4 3.3v-.2h.1v.2zm-1.1-64v-.1h.1zm1 47.4.3-.1-.1.1zm.2 1 .2-.1.3.2h.2q.3.2 0 .4 0 0-.4 0l.2-.4h-.3zm.1 2.4v-.1q.3-.3.6 0v.1q-.1.3-.5.1zm1 25 .1-.1h.4v.4-.4l-.3.2zm0-27.2q.2 0 .3-.3l.2.3q0 .1-.2.2zm5.1 1.4 1-1h.5v.2l-.5.3v.2q.2.2 0 .5 0 .1-.4 0zm-4.8 5.4v-.2h.1zm1.3-7-.3.2-.1-.1.4-.2zm-.1-8-.1.2h-.3l.1-.2zm.4 15.6v-.1h.3l-.1.4zm0-17.8-.3.2-.2-.3.2-.1zm.2 12.5.3-.6h.3v1zm.5-16.7h-.3l-.2-.2h.3zm.3 14.9.1-.2.3.2-.1.2zm0-10 .1-.2q.4 0 .5.2l-.1.2q-.3.1-.5-.3m1 25.1h.1v.2zm-.5-30.2v.2h-.3l.1-.2zm-.2-7.8.2-.2.2.1v.2zm.8 14.5.1-.2.2.2-.2.2zm.7 30.2v-.4l.3-.1v.2zh.2v.1l.3.1-.1.2q-.3 0-.2-.2v-.1zm.4 12.8v-.1h.2v.3zm-.2-32.8-.2.2h-.2l.2-.4zm-.9-47.3v-.2zm1.4 59.4v-.4h.1v.4m-.9-62.3.1-.2q.4 0 .3.2l-.2.2zm0 1.8.1-.1.1.1zm2 19.4v-.2h.1zm-1.2 3.4zh.2l-.2.1zm1 41.2.1-.2h.3l-.2.3zm.3-34.4.2-.1.2.1-.2.2zm.5 21v-.1h.2v.1zm0-11.8c.7 0 .7 0 .8.3l-.3.4zm1.1 27 .2.1v.2h-.2zm.4 5.8h.3q.5 0 0 .7l-.3-.5zm.4-6.2-.1.2h-.2v-.3zm-.8-37.6q.4 0 .3.5-.2-.1-.3-.5m1.2 45.4h.2l-.1.1zm-.4-26.1v-.2h.3v.2zm.2-9.6h-.2v-.2l.2.1zm0-8.2h-.3l-.1-.1.3-.1zm.8 30.5.1-.1.1.1zm-1-60.6h-.2v-.2h.2zm1.5 74.5.1-.2.2.1v.2zm1 40.6h.2l-.1.1zm.2 6.4.7-.5v-.3q.1 0 .2 0v.4l-.2-.1q0 .6-.7.5m.7 26.2v-.1h.1zm.3-29h-.1v-.2h.2zm.4 17.7.2-.2v.1zm-.4-30-.2.1zm-.3-14.5-.2.3-.2-.1.2-.3zm-.8-41.4zh.2l-.2.2zm.4 18.2.2-.1q.1 0 .3.2l-.1.1zm1.4 59.7v-.1h.2v.2zm-1-61.8zv-.1zm-.5-30.2v-.2l.2.1zm.4 13.1.3-.2h.2q0 .3-.2.3zm1.1 43.8.2-.3q.3 0 .4.2l-.1.5zm1.4 47.4.2-.3.2.4-.1.1zm-.2-39.4-.2.1q-.3.1-.4-.1l.1-.2q.3-.2.5 0zm-1.5-69.2q-.4 0-.4-.5h.8v.2l-.4-.1c0 .1.3.3 0 .4m.8 32.3.2-.1h.2l-.2.2zm.6 26.5v-.1h.3v.1zm.8 25.1h.1zm-.2-15.7v.2l-.1-.1zm-1.7-85.5-.1.1h-.2zm1.3 58h-.2l.1-.1h.3v.5c0 .2.3.3 0 .4q-.6-.2-.2-.9m.6 29.5h.1v.2zm-.2-28.2q-.3 0-.3-.2t.3-.2l.5.1zm.5-1.3-.1.2-.5.1q0-.5.4-.4zm-.3-16 .3-.3q.2.1.3.5-.5.2-.6-.3m.1.8.1-.1h.6v.2-.1l-.6.1zm.7 17.8v-.1h.2v.2zm.3-.7.2-.2q.1 0 .3.2l-.1.1zm1.1 27 .3-.1.2.2-.2.2zm.4-4.7-.2-.6q.5-.2 1 0-.2.5-.8.6m.1-29.2-.3-.2.3-.3q.1.2.2.3zm0-8 .2-.2h.1v.2zm1 25.6-.2-.5h.2zv.2zh-.1zm-.8 13.6-.2-.3h.1zl.2.1v.2h-.1v-.2zm2.3 40q.2-.1.3-.2l.2.1-.1.3zm-1-74h-.2v-.1h.3zm-.1-13.2q.2-.5.6-1 .4.7.2 1.4zm.4 16.8v-.2l.1.1m.3 14.2.2-.2.2.2-.1.1zm0 .9.1-.2.2.4q-.2 0-.3-.2m1.3 55 .3-.6.2.1v.6h-.3zm-.6-61.8v-.2l.3.1v.2zm.5 40.4h-.2v-.1zv.2zm-1.2-54.4h-.3q0-.2.2-.3l.2.2zm1 12.7h-.8q.1-.5.5-.4t.3.4m.3-3q-.2.3-.8 0 .6 0 .7-.6.4.3.1.5m1 37.3h.2v.1zm.6 28.3h.3-.3m.3-.7v-.2h.2v.3zm-1-59.5-.2.5-.2-.4.2-.2zm-.6-27-.3-.1.2-.3q.2 0 .3.3 0 .1-.2.1m.5 17v-.1h.2v.1zm.3 5.3.5.2-.2.6q-.5-.3-.3-.8m1.4 65.6zv.2zm-.6-36.7h.1v.2zm1 36q.3-.5.7-.2l-.3-.7q0-.2.3-.2v1c0 .2.4-.2.5 0 .5.4.4 1 .6 1.6l-.5.2h-.1q0-.7-.4-1.2c-.6 0-.6 0-.8-.6m1.5-9.8v.1h-.1zm-.4-20.6v-.2.1m-1.6-78.8v-.6l.2-.3q0-.2.3 0l.2.1-.3.2h-.3l.2.4-.1.2zm2.5 109.2q0-.1.2-.1l.2.2q-.1 0-.2.2zm.3.7h.2l-.1.1m.1-1.7-.2-.2v-.1l.2-.1.1.2zm-1.7-68v-.9q.3-.1.4.1.2.4-.4.7m-.2-41.3h.2zm.7 26.1q.3-.4.5 0 .3.3 0 .7l-.3.2zm.1-29 .1-.3h.2v.3h-.3m1.1 38.1.2.1v.2h-.2zm.2 11.8.3-.3h.3l-.1.3-.3.2zm0 1h.3v.1zm2.8 37.6v-.7q.2-.4.5 0zq.5-.3.8.2v.2l-.5.1zm-1-1.1.2-.2q0-.2.2-.3h.3c0 .2.4.3.1.6l-.6-.3v.2zm.9 8 .3-.3.3.2-.2.3zm.3 3.2.1.1zm.2-10h-.2v-1.1h.3q.2 0 .3.4zm.4 10.2.1-.2.2.2v.1zm.3-12.4-.5.1v-.1zm-.2-14.1zv.1zm-.8-44.2q-.3.2-.8 0v-.3h.5q0-.4.3-.7.3-.5.6 0 .1.5.7.6v.2l-.2.2-.3.2-.5-.3zm.6 24.1v-.1zm-.3-19.5h.1m.4 25.6.1-.1.2.2h-.3m1 39.6h.3v.5h-.2zm.3-9.6-.2-.2v-.4q.1-.1.3-.1l.2.1v.4zm.3 2h.3v.2zm.1 2.7q.2 0 .3.2l.1.2v.1l-.3-.1zm.4 10.2h.1l.1.1h-.2m-.8-50.9h-.6l-.1-.3q0-.1.3-.1zm1 43.7v-.2h.3v.2zm.2 5.4v-.2h.2v.2zm0-13-.1-.7.6.5zm.3 8.7.2-.1.2.2v.5q-.2-.2-.3-.4zm-.2-11.6.8-.3.2.1q-.3.5-1 .2m1.1 16.4h.2v.1zm-1-56v-.2q.5-.2.6.2v.1q-.4.2-.5-.2m.4 12h.1zm.2 2h.2v.1zm.2 5.5.1-.1h.1zm.1-17.1-.3.1q.2-.4.6-.3zm0 2h.2l.1.1h-.1zm.4 15.2.1-.2.2.1-.2.2m.5 7.1h.2l-.1.1m0 1.1v-.1q.3-.1.4 0l-.1.3zm.4 9.7.2.1h-.1m.2 1.4.1-.2h.2v.2zm-.9-44.5h-.1q0 0-.2 0h.3q0-.4.3-.6l.3.2zm1.3 43.9v-.2l.3.1-.1.2zm-.4-33.8v-.1l.2.2q0 0-.1 0zm.8 29.1v-.1h.2l-.1.2zm0-9.3v-.2l.1.1zm.5 19.2v-.2q.2 0 .3.2v.1zm.2-10.9h.3zm-.6-44.4zh.1zm.8 43.3.3-.1v.1q0 .3-.2.3zm.3 5q.1-.4.4-.6c.4.4-.1.5-.2.7zm.5-3.4h-.2v-.2h.2zm0-4.8-.3-.1.4-.3v.2q0 .1-.2.2m-.2 2 .1.2-.1.2-.2-.3zm-.9-16.4zv.1zm-.4-12.6.2-.1.2.2-.1.2zm.6-7.5-.3.1q-.4 0-.3-.3.3 0 .5.3l.2-.4.6.2q.2 0 0 .3h-.2q-.2-.4-.5-.2m1.3 37.7h.2l-.1.2zm-.2-17.6.3-.1v.1l-.2.2zm.4 14.3.1-.1h.2l-.2.3zm-1.4-57.7.8-.3h.2c-.5.5-.5.5-1 .3m1.3 15h.2q0 .3-.2.6l-.2-.1q0-.4.2-.5m1 42.2.7.4q-.9.1-.7-.4m.6 2.2.1-.2h.3v.1zm.7 11.7q.5-.4.7.6zm.6-10.7-.2.2h-.2l.2-.3zm-.3-15.2v.1l-.5-.1.3-.3zm.8 30.3.3.1.1.2-.2.2q-.1 0-.2-.2zm-.7-52.3-.3-.1.1-.2.2.2zm0-4.5-.2.1v-.1zm.1-.8v-.2h.3l-.1.2zm.3 14.6.3-.2v.2h-.3m.6 26q.5.2.4.5zm.5 17v-.3l.3.2v.1zm-.7-52.5-.3-.2.2-.2.2.2zm.8 24.5q.8.1.6.6zm.3-15.8v.2h-.3v-.3zm0-10.7h-.2l.2-.1zm0 2.7h.3v.1zm.3 8.5.1-.1v.2q-.2 0-.1-.1m.2 4.2.2-.1q0 0 0 .1l-.1.2zm.8 22 .1-.2h.3l-.1.2zm.2-11v.3l-.2-.1v-.2zm0-11-.2-.2.2-.4.2.4zm.3 8.3.5-.3h.1v.2q-.1.3-.5.2 0 0 0-.1m.2.7.4-.6q.3.7.8.9v.1l-.2.2zm.7-22.2q0-.3.3-.5l.5.1.2.4h.1-.1l-.7 1.2c-.5-.4-.2-.8-.3-1.2m.5 11 .2.1-.1.1h-.2zm.4 14.7h.2zm.1-4.8.2-.3.2.2q0 .4 0 .4-.4 0-.4-.3m.4 6.4c.6.3.6.3.5.8q-.6-.1-.5-.8m0 2.8q.6-.2 1-.2 0 .3-.3.5l.1.5q-.6 0-.7-.8m1-4.8q-.3.4-.7 0zm-.4-21.9h-.2l-.2-.1q0 0 .2 0zm0-1.3-.1-.1v-.1h.1zm.6 24.2v-.2l.2.1v.1zm.3 13.7h.2l-.1.1m-.1-19 .2-.1v.1zm.4 6.5v-.2l.2.1v.2zm.1-9.6-.1.2-.4-.1.3-.2zm.3 12.5v-.2l.1.2m-.2-28.2.2-.1q.3 0 .2.3l-.2.2q-.3 0-.2-.4m1 12.6.5-.1c0 .4.3.6 0 .9-.6-.3-.6-.3-.5-.8m.1 8.8.1-.1v.2m.3 3.6v-.2q.2 0 .3.2l-.1.1zm.6-3.2.3-.2.4.4-.4.2q-.4 0-.3-.4m.3-1.5h.1v.2zm.4-7.6h-.5q-.1-.1 0-.3.4-.4.3-.8l-.1-.2-.1-.3-.4-.4q.4-.2.7 0 .2.4-.2.7v.1q.5.2.3.6zm-2.8-14.4q-.5 0-.3-.4l.2-.3v-.6l.3.3q0 .6-.2 1m-.2 4-.1.2q0 .3-.3.1v-.3q.1-.3.4 0m-1.2-5.3-.1.1-.2-.2h.2zm-.3 3.3h.1v.2l-.2-.1zm.4 12.3-.2-.2.2-.1.2.2q-.2 0-.2 0m-.3 11.3.1.4h-.1l-.1-.3zm-.3-4 .4-.1q0 0 0 .1 0 .3-.4 0m.5-2.6.2.2.1.3h-.1v-.2h-.3l-.2-.2v-.1zm-2-29.2h-.2l.2-.1zm-.2 4.6v.1h-.1zm-.3 1v.2h-.2zm.2-1.5h-.2v-.1l.1-.1zm-.4 11.6-.1.1zm-.2-7.6-.2.2-.2-.2v-.2zm-.4 1h.2l-.1.1zm0-3.2v.2l-.3-.1zm-1-10.8q0 0-.1 0v-.1zm.1 22.2-.2.2h-.1l.1-.3zm-.2-12.5-.1.2-.2-.2v-.2zm-.9 1.9.3.1-.2.1h-.1zm.2-3.3q-.1.6-.6.6l.2-.8h.1zm-.8-12.5v.3h-.2v-.3zm.3 16.3v.2c-.2.3-.2.3-.8.1zm-.3-1.1v.1h-.2v-.2zm-.2-6.5h-.2v-.2zm0 46zh-.2l.1-.1zm-1-38.3.1-.1zm.4 16.6h.1l-.1.2zm-.5-33-.8.7q-.3.1-.4-.4zm-.8 2.8-.2-.2.2-.1.2.2zm.3 11.7v-.4h.1q0 .3 0 .4m-.7-10 .3-.2q.2 0 .2.4l-.2.2q-.2 0-.3-.4m.6 18.2h-.1l.1-.2.1.2m.8 27.2q0 .3-.4.6-.1-.8 0-.8zm-1-30.2-.9-.5.5-.4zm-.2-2-.2-.2-.1-.3.2-.1v.2l-.2.2h.3zm-.4-20-.2.2h-.1l.1-.3zm-.3.7-.3.1v-.1l.1-.2zm-.2 9.3q.2 0 .2.3h-.2l-.2-.2zm-.6-14q.3-.1.3.2l-.2.2-.3-.2zm.2-.5h-.2l-.3-.3.3-.2.3.3zm-.8.5q-.1 0-.2 0l-.2-.1.3-.3zm-.7 6-.1.2h-.1v-.2zm-.7-.5-.6-.8.7-.2q.5-.3.5.1 0 .6-.6 1m0-7.3v.1h-.2zm.3-1.7-.5-.3q.5 0 .5.3m-1 10.5.3.1h-.5q.1-.2.3-.1m-.4-1.2-.4.4-.2-.4.3-.2zm-.3-1q0 0-.2.3l-.2-.1q0-.3.2-.4zm-.7-8.4h-.2v-.2zm-.2 1.8.2-.1zm.7 26.4h-.2q0-.1 0-.2.1-.2.7-.5zm.8 6.9h-.2v-.1h.1m-.3-6.1q.1-.7.6-1v1zm1.6 37h-.2v-.2h.3zM2197 208q0 0 0 .2v.1h-.2q0-.2.2-.3m-.5-12.3q.5-.2.8-.1c-.3.6-.3.6-.8.1m1 2.4-.5 1q-.3-.2-.3-.5.1-.4.8-.5m.3 2.9h-.5q0-.2 0-.2l.1-.2q.3 0 .4.4m.2 9.8.4-.2.2.1v.2l-.5.1h-.1zm-.2-11.2-.2-.1.1-.1.1.1m-.6 18v.2l-.1-.1m-.2-4.5.1-.2.2.3-.2.3zm.4 39.3zm-.7-33.5h.2zm-1-21.2q-.8.2-.5-.6.5.2.5.6m-.5 6.8.3-.2q.3 0 .3.3l-.2.2zm.3 13.8h.2zm.3-3q0 0-.2 0v-.3l.3-.2v.6m0 8.5.2-.2.2.1q0 .3-.2.3zm1.1 25.1-.3.2v-.3h.1zm-.3-10-.2-.1v-.4l.3.2zm-.8-9.5.1.1v.2l-.2-.1zm-.1-3.7h.2l.1.1-.2.2zm-.2-18.8-.4.3-.2-.1.2-.2zm-1.2-25.8v.1h-.2v-.1zm.8 32.6h.1v.2h-.2zm-.4-4.5v-.2h.3v.3zm0-3.7.1.2q0 .3-.3.3l-.3-.2zm-.3 4.6-.1.2v-.1zm0-16.3-.3.6-.2-.7v-.2h.2zm-.7-9-.4.5v.2q0 .3-.2.3t-.3-.3l.2-.2h.2v-.3q.2-.2.5-.3m-.8 0h-.2v-.1zm0 5.4h.1zm1.6 52.5h-.2v-.1zm-.6-32.9h-.1v-.1h.1zm-.5-21.1-.1-.2.1-.1h.2zm.4 18.2.1-.2h.2v.3zm.8 25.8v-.2zm.2 5-.2.1v-.2zm-2-30.6h-.3l.2-.3h.2q0 .3-.2.3m.1-4q-.4 0-.4-.4l.2-.2q.4 0 .5.2t-.3.4m.5 17.8h-.1v-.2zm-1.1-.5v.1h-.1zm-.5-6.6h.1v.1h-.1m-.3-12.5h.3zm1.5 21.9h-.9c.6-.4.6-.4.9 0m-1-20.6v-.2zm.5 19.6v.1h-.1zm.6-21.8q.3.3.2.7l-1-.3q.4-.6.8-.4m-1-2-.2-.1h.2m-1.3-25.3h-.2zm.5 16.7-.2.1zm-1 9v.2l-.1.1-.1-.1zm.5-1.4h-.2q-.2.6-.5.9l-.7-.2q-.4-.2-.2-.5.3-.1.4.2h.2c.3 0 .4-.4.7-.3l.2-.2m-1.2 2.8-.2-.2.3-.4v.1q0 .3-.2.5m1.5 23.5h-.8l.2-.3q.4-.1.6.3m-.3-3.3-.2-.3.1-.1.3.1zm.3 2.5.3.2h-.3l-.1-.1q0 0 .1 0m-1.7-14.4.3-.3.2.3h-.5m.5 12.7q-.4.3-.6 0zm-.2-11.3-.1-.1.1-.2h.2q0 .1-.2.3m0 38q.1 0 .3.2l-.6.2q0-.6.4-.5m-1-15.5q0 .1-.2.2l-.2-.2.2-.2zm-.3-8.9.3.1v-.1.1l.2.1.5-.2q.6-.2.6.5 0 .2 0 .4c-.4.1-.6-.2-.9 0-.7 0-.7 0-.7-.9m1-3.7-.1.1q-.4.2-.6-.2l-.2-.1v-.2h.3q.4 0 .5.4m-.9-22-.1.2h-.2l.1-.3zm-1.2-22.2v.1h-.2v-.2zm-.7-1v.2l-.1-.1zm0 2.4h-.2zm-.5-4.2-.3.4h-.1q0-.4.2-.5h.1zm0 30.5v.2h-.2zm-.6-25.6zh.1v.1zm.4-8.6q0 0-.2.3l-.2-.4.2-.2h.2zm.4 77v.2zm-1.4-68.6v.2h-.1v-.2m-.3-9v.7q-.6 0-.5-.5 0-.3.5-.1m.3 34.7h.1l-.1.3-.2-.1q0-.1.2-.2m-.6-19-.4-.2-.2-.2h.1q.3-.2.5.1zm-.5-6.8v.2h-.3l-.4-.4h.5q.3 0 .2.2m0 35.3.2-.2.3.1-.2.2zm.2 1.3v-.7q.4 0 .3.4 0 .4-.3.3m.2-16.3v-.2zm1.3 59.2h-.3l.2-.1zm-1.4-25h-.2zm-.2-9.3.1-.4.2.1zm-.1-11.6h-.2v-.1zm-1.2 2.4-.2-.1.2-.2.2.1zm.3.8h-.2l.3-.2zm.1 7.5.1-.2.2.2v.2zm0-11.3-.1-.2v-.1l.2.1zm.4 13.4h-.1zm-.7-39.7-.2.4-.6.3q-.4.1-.3-.4l1 .1q-.2-.5.1-.4m-.8-11.2q0 .2-.3.1l-.1-.2h.3m.4 43.4.1.2q0 .2-.2.2l-.3-.2zm-1.3-43h-.2l.1-.2zm-.9-.4v.2h-.1zm.4 34.5h.2zm0-1h.2v.2zm-.4-43.8-.2.2q-.3 0-.4-.3l-.1-.7.6.3q.2.3 0 .5m.9 72.2h-.2l.1-.2h.2zm.3 12.3h-.2zm-1.1-47.2-.1.2h-.3q0-.2.2-.3zm-.5-20.9-.1.1h-.2l.2-.2zm0 2.6v.2h-.2zm-.3-1.7-.1-.2v-.2l.2.1.1.2v.2zm0-6.3h-.2l-.1-.1.2-.1zm-.6-15.3-.1.2h-.2l.1-.2zm.4 25.8q-.1-.2-.2-.3l.2-.2.2.2zm0 7.3h.1v.2h-.1zm-.1-5.6h.2l-.2.4-.3-.1zm0 22.6.1.2v.1zm-.3-25.1-.1.1-.1-.1zm-.2 3.8-.8-.8v-.2h.2q.4 0 .5.3zm-.3-5.6-.2.1-.1-.2h.2m-.3-3.3v.1h-.2v-.2zm-.1 2.4.1.1v.1zm-.2-13.9-.1.2-.1-.2zm-.4-6.5-.2.1v-.1l.1-.1zm-.2-2.1-.5.2c-.2 0-.2.3-.5.1 0-.5.5-.4.8-.7zm-.4-3.3-.1.2-.2-.1.1-.2zm-.6 2.4-.2.2-.3-.2.4-.1zm-.7-2.6h-.1v-.2q.2 0 .1.2m-.2-1-.2-.1v-.2l.2.1zm.1 4.5v-.4h.6q-.2.7-.6.4m.8 11.1v-.2l.2.1zm.7 21.7-.2-.1.3-.2v.1zm.3 8.3.2-.1.2.2-.2.2zm.1.8.1-.2h.1v.2zm.3 15.5.2-.2h.2q0 .1-.2.3zm.4-7.2q-.3-.6.1-.7v.3zm.9 24.2-.1.1-.2-.2h.2m-.3-26.5-.1.1q-.3 0-.4-.2zm-.5-15v.4l-.2-.2zm-.4-14.7h-.2zm-.2-4v.2l-.1-.1zm-.4-4.6.1-.1h.2l-.1.2zm.5 20.5h.2v.2h-.3zm2.4-2.5h-.4zm-2.6-8.2c0-.2-.5-.4 0-.6zv.2l-.2.3q-.2 0-.3-.4 0-.2.3-.2zm1 16.9v-.1h.1v.1zm.4 13.2h.4l-.3.2zm.2 3v-.2h.1l.2.1zm.5 22.2.2.3-.3-.1zm-2-26.4h-.2v-.3h.2zm.6 13.3q.3 0 .2.4v.4l-.6-.1v-.4q.1-.4.4-.3m-1.6-42.7v.1h-.2zm-.2-.7.1-.4h.2v.5h-.2m-.6 2.3v-.3q.3 0 .4.2v.2zm.6 26.7h.2zm-.3-11-.2.1zm.3 14.8h.3v.3h-.5zm-.3-1.9h.2zm-1-49.2q.1.4-.4.3v-.2q.1-.3.4 0m-.6 1.4.2-.2v.4zm.4 17.7v.2zm-.7-25.8v.2h-.2v-.3zm-.1 36.2v-.1h.2v.2zm.8 11h-.2v-.2zm-.2-14h-.1v-.2h.2zm1 43.3h-.2l.1-.1zm-1.2-36.2-.1.2-.1-.1zm-.3-1.6.2-.4.2.2-.1.3zm0-25-.2.1h-.4.3l.2-.2zm-.5 2.7h-.2l-.1-.1.2-.3zm-.2-3.6-.2.3-.5-.2q0-.4.3-.6l.3-.1v.4q0 0 0 .2m-.2 20.2v-.2zm.2 6.7v.2l-.2-.2zm-.7-38.2h-.3v-.1zm-.2-1.4-.2.1v-.1zm.3 26.8-.2.1-.1-.1.1-.1zm-.6-13.2v.2h-.2v-.3zm0 12.2v-.1h.2zm0 1.3h.1v.2l-.3-.1zm0 8.2.2-.2.1.1v.3l-.4.1v.3h-.1l.1-.2zm.2 20.3.1-.3.2.1v.2zm.7 9.7-.2-.2.2-.1zm.3 7.3-.1.2-.1-.1v-.2zm-.6-28.8v-.2h.2zm0 30.8h.2v-.3l.4.1.1.2h-.7m.8 39.6.2.3v.1h-.1l-.3-.3zm-.2-1.4q.5.1.8.5c-.7 0-.7 0-.8-.5M2170 194l-.1.1-.2-.1.2-.1m-.3-16.3.1.2h-.2zm-1.2-31h-.2v-.2l.2.1zm-.3 18h-.1zm.2-6.3v.7l-.4-.4q-.2-.3.1-.5.3 0 .3.2m-.7 2v.1zm-.4-15.8h-.1l-.1-.1.1-.1q0 0 0 .2m-2.3-2.7-.5.4q0-.6.5-.4m.1 32.7v.1h-.2zm-.3-1.4v-.2zm.1 6-.1-.1zm-.7-37.7-.6.5-.1.3q0-.3 0-.2 0-.4.3-.6zm-1 1.4q.3 0 .5.3v.5q-.1.3-.5 0v-.8m.4 10.3h-.2l-.1-.3h.2zm.3-6.4-.2.1-.4-.2h.5zm.2 18.6h.1v.1zm-.5-17.4-.2-.1q0-.3.3-.4l.2-.1v.2q0 .3-.3.4m0 23.6v.1h-.2zm-1-27.5-.4.5-.5-.5c.6-.3.6-.3.9 0m-.5 19.2h.2l.3.2h-.2q-.1 0-.3-.2m-.4 1zl.5-.2q.3 0 .3.5zm.9 4.8h-.1v-.2h.1zm-.3 1.6v-.3l.3.1v.2zm.4-5.2v-.2l.2.2zm.3 16.7-.2-.2-.1-.5q.6.2.3.7m-1-19.7-.2.8c-.5-.4-.5-.4.2-.8m-.8-17.8-.1.2-.2-.2zm.2-2.2q-.8-.1-.4-.7zm-.7 19.8.4-.5q.2.6-.3.5m0 8.6v-.3h.1zm-.3-3.4v.4-.4m-.3-22.8h-.1l-.2-.4.3.3m-.4-2.5-.2.2-.1-.1zm1 53-.2.2-.1-.3h.3m0-1.6h-.2zm-1.1-26.2.4.3-.4.1-.2-.1zm-1.2-8.2v.2h-.1zm-1.9-3.5h-.4v-.4h.3zm-.6-20-.1.2h-.2l.2-.2zm.1 17.4.3.2-.1.3-.2-.2zm-.2 1.4v-.1h.1zm.2 6.7-.2.1zm-.3-24.7-.5.4-.4-.4q.7-.3.9 0m-.5 13.9.1-.1zm1.1 42h-.2l.1-.1zm-1.1-36.6q.1 0 .2.2l-.2.1-.2-.2zm-.2.8h.3v.2h-.5zm.6 28.6.1.2h-.2zm-.8-26.4.5-.6q0 .8-.5.6m-.1-1.2v.1h-.2l.1-.2zm.5 24.1.2.1-.1.2zm-.4-9.5v-.3l.3.2-.1.2zm.6 25.1.2.2-.3.2-.1-.1zm-.1-3.4v.2h-.2v-.2zm-1.6-63-.4.3q0-.4.2-.5l.2-.1zm-.3 10.1.2.1v.2h-.3zm1 54.3v.2h-.1zm-.1-4.2v.2l-.1-.1zm18.2 82.9-.1.1v-.1m0-5q0 .3-.3.3l-.2-.3.2-.1q.2 0 .2.2m-.3-9.4q-.7-.3-.7-.7.9.4.7.7m-.5 4.1-.7.3q.1-.8.6-.5zm-.8-17.1h-.1v-.2q0-.2.3-.3l.1.1q0 .4-.3.4m.5 48.1h-.2q0-.2.1-.1zm-.5-4.8-.3.2-.2-.2.2-.3zm-.8-27.5v.2h-.1zm.2 18.5.1.3h-.2l-.1-.2zm-.5-23.2h-.2zm0 12.1v.2q0 .2 0 .4h-.3v-.5zm-.5-5.8v.1l-.4-.2.3-.2zm-.3-3.7-.2.3-.2-.2.2-.4zm-.3 7v.2h-.3v-.3zm0 13.9-.2.1h-.1l.2-.2m-1.3-29-.2.1-.1-.1.2-.1m.2 24-.7-.8v-.3q.8.5.7 1.2m-.6 8.4.3-.2.2.2q0 .3-.4.2zm-.2-.8h-.1v-.4h.2q0 .2 0 .4m-.2-9.2-.1.2h-.1v-.2zm-.4-14.1-.2-.1h.2m0 4.6-.2.2-.3-.2q0 0 0-.2 0 0 .1 0 .3 0 .3.2m0 29.4.1.2zm-.7-31.4-.2.2q-.1 0-.3-.2l.2-.2zm-.4-8.4h-.2v-.3l.2.1zm-.4 4.8q0 0-.2 0l.1-.1zm0 5.6.5.7-.1.1q-.3 0-.5-.3t.2-.5m.1 21.2-.2.2v-.3h.1zm-.9-28-.8-.6q.7-.4 1 0 .1.3-.2.6m-.8.9q0 0 .2.3l-.1.1h-.1l-.1-.4m0 7.5h.2l.1.1h-.2zm0-.8-.1.1-.1-.1v-.2zm-.2 3q-.6.1-1.2-.4.8-.1 1.2.4m-1-8.3.3.3-.3.2-.2-.1zm.7-1.3q0 .5-.6.5l-.2-.2.1-.2zm-1.2-1.6h-.1v-.2zm.2 14 .1-.2.3.1-.1.3zm.4 16.2v.2h-.3l.1-.2zm-.3-8v.3h-.4q0-.2.2-.3zm-.6-8-.5 1-.2-1q.4-.4.7 0m-.3-7.9-.2.2h-.4l.3-.3h.3zm-.3 9.4h-.1v-.2zm-.3 1.8.4.4v.2h-.2q-.3 0-.2-.6m0 .9v.5h-.2v-.5zm-.4-15v.3l-.1-.1zm0 5.6h-.1m0 6v.2zm0 6.4-.1.1h-.2l.2-.2m-.3-1.9-.3.2v-.2zm-.5-13.5v.1h-.2l.1-.2zm0 6-.1.1h-.2l.1-.1zm-.2 5.7v.4l-.1-.2zm1.2 11q-.8.5-1.5.5l-.1-.3zm-1.7-14.5q0 0-.2.3l-.2-.3.2-.2zm-.4-2.8-.1.1-.1-.2q-.1-.3.2-.5.2.3 0 .6m-.2 1.3-.1.1-.1-.1.2-.1zm-.1 4.2h.5l-.1.6-.6-.2q0 .2-.2.2l-.2-.1.3-.1zm-.5-3q-.5 0-.4-.6.3.2.4.6m-.4 5.9.2.2-.2.3-.2-.1q0-.3.2-.4m-.2-2.3-.1.1v-.1m-.6-4v.2h-.2v-.2zm-.1 3.3h.1l-.1.3h-.3zm-.1 13.4h.2l-.1.2h-.2v.1h-.1.1v-.2zm-.5-14.4h-.2v-.1zm0 16.3.2-.1.2.2-.1.1zm0 1.1-.3.4h-.2v-.1l.3-.4zm-.7-14.2-.2.2-.3-.3.1-.2h.3zm-.2-4zv-.2zm-.2 2.5v.2h-.1zm-.3 15.1-.2.1v-.2zm-.6-13.3h-.2l-.1-.1h.2zm-.2-8v.1h-.2v-.2zm-.3 11.4.3-.2.1.1q0 .2-.2.3zm-.6-6.6-.2.2-.2-.3h.3m0 25v.2h-.6v-.2l.5.2v-.2q0-.2.2-.2h.1q0 .3-.2.3m0-9.4-.1.1-.2-.1v-.2zm-.5-16.4h-.2v-.2h.1zm.2 17.4q.3 0 .3.4l-.2.2-.4-.4zm-.2-8.6h-.2zm-.5-8q0 0-.3-.2l.3-.2.2.1q0 .3-.2.3m-.2-1.3h-.2l.1-.2zm0 26.5-.1-.4v-.1h.2zm-.1-4c-.3 0-.6.5-.8.2s.2-.6 0-.9l.3-.2zm-.2-4.6h-.1m-.2-.7-.2.1v-.1zm-.7 3.3-.4.1-.2-.6-.1.2v.3l.3.9q-.7 0-.6-.5t-.3-.5q0 .3-.2.6t-.6 0l.2-.4.1-.6q.6 0 .8-.4h.3q.4 0 .1.4.4-.2.6.1zm-1.6-5.6h.1zm.2-3.1-.4.8q-.5-.5-.2-.8t.6 0m-.7 13q.3-.1.2.2 0 .2 0 0h-.3zm0-4.2h-.3v-.2h.2zm-.5-9.2-.3-.4v-.2h.2q.6 0 .1.6m-.3 11-.1.3-.1-.1v-.2zm0 5.2-.4.6q-.1-.6.4-.6m-.7-6.5-.3-.1q-.2 0-.2-.3l.2-.2.2.1q.3.2.2.5m-.1-9.8v.2h-.2v-.2zm-.4 10.5v-.1h.1zm-.3-8.7v.2l-.3-.1v-.2zm-.4 13.3-.2.1-.2-.2.2-.1zm-.4-12h-.2v-.1zm-.2 8.5-.3.2-.2-.2.3-.3.2.1zm-.4-6.9q0 .5-.3.5v-.2zm-.3 3.2h-.1l-.1-.3-.3-.3.1-.1.2.1v.3l.2.1zm-.9-2.6v.1h-.2v-.2zm-.3 8.3-.1.1-.1-.1.1-.1q0 0 0 .1m0-.7h-.3v-.1h.3zm-.6.7-.2.3-.1-.2.1-.2zm3.2-3v.1h-.2v-.2zm-4-1.6h-.3v-.2h.1zm-.3 3.4.2-.1.2.2q-.1 0-.2 0zm.1 7.2h.2v.3q-.2 0-.3-.2zm-.5-5.8-.3.3-.6-.2q0-.3.3-.1h.3q0-.3.3 0m-.5-1h-.2v-.2zm-.8-14.3q0 .3-.3.3 0-.4.2-.4m-.3 8.6h-.2l-.1-.1h.2zm-.2 9.7-.1.2v-.2m-.2 1-.2.2-.1-.1.1-.2zm-.4-13v.2l-.3-.1.1-.2zm-.2 14.9v.2l-.2-.2zm-.1-2-.2-.1v-.2h.2zm-.4-19.2h-.2v-.1zm.1 16.5.1.2-.2.1q-.3 0-.3-.2zm-.4 1.3v.2zm-.9-5v.1h-.1zm3.7 4.4.1-.1h.2l-.2.2zm1.3.5zv-.2h.1zm2.6 2.1v-.1h.2zm.1-2.8v-.2l.1.1m.4-.8.1-.1v.1zm.3 2.6h-.2v-.2h.2zm-.2 1.3.3-.4.2-.1h.1q0 .2-.2.3zm1.7-1.3.1-.2.2.1zm.7 0 .2-.1v.2zm1.2-1.4v-.3l.2.1v.2zm.5-5.5.4-.4.4.5q0 .3-.5.2zm1.1 4.5v-.1h.2v.2zm.7-.2h.2l-.1.1zm6.3-8.4.1-.2h.2l-.1.2zm-.5-1 .2-.3 1.3.3c-1 .2-1 .2-1.5 0m1.8 8.7h.2v.2zm.2-3q.2 0 .3.3h-.1zm-.8-16q.2-.8.8-.7zm.1 9v.1h-.2v-.1zm-.2-6h.2v.1l-.1.1zm1.1 6.4h-.1v-.2h.1zm.7 5v-.1h.2v.2zm.1 4.9v-.2h.2v.2zm.2-10.7v-.1h.2v.2zm.6 0 .2-.1q.2 0 .2.3l-.2.1zm.6 7h.2v.1zm.2-8.6-.2-.2.3-.3v.5m.1-4.2-.5-.1q-.2 0 0-.3l.6.2zm.3 14.1h.3zm.3 4v-.2h.3v.2zm1.1-2.6v.8l-1-.5zm-.6-10.4.1.1v.1h-.2zm-.7-9.6v-.2zq0 0 0 .1m.2.9v.1zm.2 12.5h.2l-.1.2h-.2zm-.3-3 .1-.2h.1v.1zm.7-5.7-.2-.2.1-.3.3.3zm0 1.2q.5.6-.2.6v.6l-.3-.1v-.3l.3-.1q-.3-.6.2-.7v-.2l.1-.2.1.2q0 .3-.2.2m.1 17 .3-.4.3.4q0 .3-.4.2zm.4-10.3.4-.4.1.3-.3.3zm.5 6.4h.2-.1m.6-8.6v.3l-.2-.1v-.2zm-.7-14.5h.4v.3zm-.1 10.2zl.1-.2zm.3 2.1v-.1zm.3 5.2v.3h-.3q-.2-.3.1-.5zm-.3 4.3-.2-.4q.1-.5.5-.4.6.1 1 .6l-.1.3zm.4 1v-.2l.2.1q.1.2 0 .5h-.1zm.7 1v-.3q.2 0 .3.2l-.1.1zm-.2-7.8v.2h-.1l-.1-.1q0 0 .2 0m-.4-7.3q.3-.4.8-.1l-.8.6zm.8-8.7.2.1v.2l-.2-.1zm.6 23.1h.2zm-.5-28.6-.2-.2.2-.2.2.2zm.4 6.5.1-.2v.3zm.7-5zl-.1-.1zm0 24q-.5 0-.6-.4 0-.2.3-.3zl.7-.3v.3q0 .2-.2.3t-.5-.3m.5-22h.1v.1m.8 18.3h.1l-.1.1m.3-4.5h.2v.2zm.3 4h.1zm.3 8.8h.2v.2-.1zm.3-20 .3-.1.2.2-.2.1zm.3 7.5.1-.2.2.2-.1.1zm1.2-9.2-.2-.1v-.2l.3.1zm-.2.5v-.2l.3.2-.1.1zm.1-13.8.2-.1h.1v.6q-.5-.2-.3-.5m.5 23.3v-.2h.2v.2zm.2-4h-.2l.1-.2zm-.1-5.3-.1-.2v-.1l.2.1zm.2 6.4h.1l.1.1h-.2m1.2 12.1h.1v.1h-.1m1 1 .2-.1h.2l-.2.3zm-.3-28.3-.2-.1v-.2q.3 0 .3.2zm-.1-3.3h-.2q0-.3.3-.3h.2zm.1 2 .4-.1.1.2-.2.2zm.5 13.4v-.1l.1.1v.1zm0-12.3.1-.3.3.1-.2.3zm.1 17.3v-.2h.1v.2m.2-15.3.1-.1h.2l-.2.2zm-.1 2h.2v.1h-.2m-37.4 14.2-.1.1h-.1zm-1-3.4h-.3v-.3l.3.1zm0 15.8h-.3l.2-.2zm-2.2 4.7v.1h-.3l.1-.2zm-.5-.6h-.2v-.1zm-.8-14.2q0 .3-.3.1l-.1-.1h.4m-.6 13.4-.2.2v-.2l.1-.1zm-.7-11.9-.2.1-.2-.1h.4m-.3 1v.2l-.2-.1.1-.2m0 9.5v.1h-.2v-.2zm-.2 1.4h-.2v-.1zm.4.9.1-.2.1.2zm-3.2-.2v.2h-.1zm-.5-14.7h-.2v-.1zm-5-8.2h-.4l.1-.3q.3 0 .4 0zm-.5 1.6.2-.2v.3zm0 6.4h-.2zm0 10.2h.5q0 .3-.2.3t-.4-.3m-4.6-18.4h-.2v-.1zm-.4 18.5v.2q-.1 0-.3-.2l.1-.1zm-2.2-5.8v.2l-.2-.1v-.2zm-1.4-.2-.1.1v-.1zm-2.7 5.4q0 .1-.2.2h-.2l.2-.4zm-1-2.2zv-.2zm-.7-1.8v.2h-.3l.1-.3zm46.6-143.1c-.7.2.1.3 0 .6q-.5.2-.7-.2 0-.3.2-.5zm-.8-8.4.6-1q0 1-.6 1m0-1.8-.4.4h-.3l-.1-.3.2-.2zm-.7.8q.5.5 0 .8zm.5 3.5v-.4l.3.1-.1.4zm-1.2-17-.2.1-.2-.2.2-.2zm-.1 12.5v-.2h.2zq-.2 0-.5.3l-.1-.1v-.2zm-.1 14 .2.2-.2.2q-.4 0-.4-.2t.4-.2m-1-2.1zh-.1l.1-.2zm1.1-1.3h-.2l.1-.3h.2zm-2.5-14.8-.1-.1v-.4l.2.3zm-.8-1.7-.2-.1v-.2l.3.1zm-.5-8v.1zm0 6.4q0 .2-.2.2l-.1-.1.2-.2zm-.2 9.7q-.2.2-.5.3 0 0-.3-.2l.1-.2.6-.1zm-.4-7.2h-.2l.1-.1zm-.5 3.8-.2-.3.3-.2.2.2q0 .3-.3.3m-.7-14.2h-.3l.2-.1m-.2 5.9v.1l-.1-.1zm-.2.8.1.1zm0 2.5q-.2 0-.3.2l-.2-.2.2-.2zm0-1.4-.1.3-.2-.2v-.2zm-.5-12.2.2.2h-.1zq-.3-.3 0-.7l.1.3zm.1 19.7h.2v.2h-.2zm-.5-19.4v.4h-.2zh-.6c0 .3.3.5 0 .7q-.2-.4 0-.7.4-.4.6 0m-1.4 9.9-.2.2h-.3l.2-.3zm-.4-11.6-.1.3-.2-.1zm-.5 9.5v.1h-.3q0-.3-.2-.6.6 0 .5.5m-.7-8.4-.2.2-.1-.2zm-.3-3.9-.1.2q-.2 0-.2-.3l.1-.1zm4.4 29.5.6-.3-.4.6h-.2zm-5.3-15.7c-.4.5-.4.5-1.6.4q.3-.3.5-.3.4-.1.7-.4zm-.6-3.5v.2l-.1-.2v-.1zm-.4.5q-1 0-1 .6l-.4.1c.2-.8.2-.8 1-1.2zm-.2-5.5-.2.1v-.2zm-1.3-5.9zh-.2v-.1zm-.5-2v.2l-.1-.1zm-.1 15.8-.1.2h-.2v-.3zm-3.8-15.3v.2h-.2v-.1zm3.2-.8v.2l-.1-.1zm0 17.1-.1.1h-.2v-.1zm-.5-14.2v.1l-.2-.1v-.1zm-.1-5-.2.1v-.2zm-.2 3 .3.3-.2.1q-.2 0-.2-.2zm0 10.4-.2.3-.2-.1zm-.2-.8-.1.1v-.1zm-.2 3.3.1.2h-.1zm-.3-8.6v.1h-.1zm.5 7.5-.1-.1.2-.1zm-.4 3.9.2-.1.3.1-.1-.3v.3l-.2.1zm.6-11.2v-.2h.1zm3 13.3.1-.1h.1zm.7.1-.1-.2h.2v.1zm-.2 4.2h.2l.3.6q-.5 0-.6-.4zm1-.2.1-.2v.2m-6.1-18.5v.1h-.2v-.1zm-.2-5.7h-.2v-.1zm-.1 15h-.2l.1-.1m-.3-13.3-.2.2-.2-.2.3-.1zm-.4-13v.2l-.2-.1zm0 10h-.1v-.1m-.2 2.2-.2-.1.2-.1zm-.3-11.5-.1.1-.1-.2h.2zm-.6 9 .6.5q0 .5-.3.7-.3-.1-.1-.4 0-.3-.3-.5zm0 12.2v.1l-.2-.1zm-.5-9.8q-.4.1-.5-.2v-.1h.2q.2 0 .3.3m-.6-23.8h-.2v-.1zm-.3 12.7-.2-.1.2-.3h.2q0 .3-.2.4m-1-10.8q-.4-.2 0-.5l.2.1q.2.4-.2.4m.2 19.6.2.1q0 .2-.2.2h-.1zm-.2 2.6-.2.2q-.4.5-1 .5.4-.6 1-.4v-.5h.2zm-1.1 2.3h.5v.2h-.4zm4.1 9h.2zm.2-8.5v-.2l.2.1v.1zm-4.7-.4h-.2v-.3h.1zm-.3-4.5v.1h-.2zm-65.5 126.3a76 76 0 0 0 6.2 24.5 75 75 0 0 0 17.2 23.5c1 1.2 3.2 2.8 5 3.9q1.2.6 2.2 1.6 9.1-9.7 18.4-19.2l-.2-.6a68 68 0 0 1-4.3-15.1q-.9-5 .2-10 1-4 4.2-6.8l4.5-3.7 7.8-6.3 4.4-3.5 5.1-4.2 7.2-5.7 2.2-1.8q1.7-1.4 3.8-1a4 4 0 0 1 2.2 1.2l2.6 2.5 4.7 4.5 6.5 6.3 3.8 3.6q2.6 2.6 5.4 5.1c1.6 1.5 2 3.9.6 6l-2 2.6-11.6 15.6-8 10.9-2.2 2.9a13 13 0 0 1-6 4.4q-3.7 1.2-7.6 1.1-5.3 0-10.5-1.4-3-.7-5.8-1.7l-2.2-.7-.6-.2-.4.4c-5.7 6-16.5 8.9-22.2 14.8 0 0 5 3.2 4.9 3.4l.7.5a85 85 0 0 0 17.8 7.7q2.2.7 4.6 1.2a65 65 0 0 0 13 1.9q6 .2 11.9-.2 2.1 0 4.2-.4a75 75 0 0 0 29.8-10.4 79 79 0 0 0 25.4-24.7 75 75 0 0 0 9.7-24.7 69 69 0 0 0 1.2-14q0-1.6-.2-3.4l-.4-4q-.2-2-.6-4a82 82 0 0 0-5.8-19.2q-1.6-4-3.6-8a158 158 0 0 0-21.8-33l-4.3-5-4.2-4.7-4.4-5.2-4.2-4.5q-2.7-3-5.6-5.6l-5.1-5.3-4.1-4.5-6-6.6-4.6-5.6a38 38 0 0 1-5.8-10 44 44 0 0 1-2.7-8.8q-.9-4.7-.4-9.5a31 31 0 0 1 2-8.4l-.1-.2-.6.5q-1.6 1.6-3 3.7V79l-.4.8-.1.2a48 48 0 0 0-5.8 21.8q0 3 .6 6.3 1 5.7 3.3 11 2.1 5 4.8 9.5l5.7 9 2.6 3.3 3.5 5a80 80 0 0 1 8 16.5 34 34 0 0 1 1 19.1q-.7 4-3 7a26 26 0 0 1-18.8 10.8 28 28 0 0 1-22.1-7.6 24 24 0 0 1-5-8.8 37 37 0 0 1-1.5-14.9 55 55 0 0 1 2.4-11.6l2.7-8.8 1.2-3.9q.2-.4 0-.9l-.4.3q-.7.4-1.2 1l-13.3 13.3a146 146 0 0 0-17.3 21.7l-2.4 4.2-2.7 5.3-2.1 5q-1.4 3.1-2.5 6.5a105 105 0 0 0-5.7 31q0 2.8.2 5.5" clip-rule="evenodd"/><path fill="#f297a0" fill-rule="evenodd" d="m2072.5 253 1 2.7.2 2.3v-.1a9 9 0 0 1-1.2-5m90-100 4.6 5.7 1.2 3.5-.4.1-.8-.6q-.4-.2-1.2-.2l-.3-.7q-.1-.4-.5-.7-.4-2-1.2-4zm30.5 102.2.6-2.1.4.5zm-40.3-117q-.8-.2-1.6 0c-.4-1-1-2-1-3q.1-1 1-2-.4 1.2.7 2a2 2 0 0 0 .3 2.3zm-2.6 3.5.5-.3 1.4 2q-.5 0-1 .4zm-2-11.1-.8 1.4-.7-1.1q.7 0 1.5-.3m-85.1 110q.4.5 1 .7v2.8c.3 2.3.4 4.7 2.6 5.9l.5.2v.7c-.4 3.6-.6 8 3.2 9.8a2 2 0 0 0 2.8-1.3l.7 4-.6.5c-3.4 3.7 1.6 6.4 4.4 8.3l.3.4q.8 1 1.8 1 1.6 1.2 3.3 2.6c-1.6.4-1.9 3 0 3.8 1 .4 1.6 1.3 2.7 1.6q1.1.2 2.2-.2h.3l1 3.3c.3 1.2 1.4 1.5 2.3 1.3a2 2 0 0 0 0 1.8l-.1 1c0 1 1 1.8 2 1.8h1.2q.8.4 1.7 0l.1-.2q.3 0 .5-.3 1-.8.7-1.8l5.5 3-1 1.6a2 2 0 0 0 .4 2.3l2.8 2 1 1c1.7 1.5 4 1.4 6.2 1q.7 0 1-.3l2.4.7q2 1.2 4.7 1.4.1 1.3 1.4 1.6l4 .6q.5.6 1.5.6h2l.4-.1q.5.8 1.5 1a2 2 0 0 0 1.8-.8h.7l.6.1c2.2 1.4 4.6.6 6.8-.4q3.5.4 6.9 0 1.5-.4 3.1-.4 1.3 0 2.7-.3 1.4-.6 3.2-.8 1.5-.1 3-.5c2.3-.6 4.5-1.6 6.8-2.2q.6 0 1-.6 2.4-.9 4.8-2.2c1.8-1 3.8-2.1 3.5-4.5v-.3c2.4-1.2 5.1-1.3 7.8-2.1 2.3-.7 3.6-2.5 5-4.4 1-1.4-.2-2.7-1.6-2.8l.6-.3a39 39 0 0 0 14-15q.7 0 1.3-.7l.2-.1q.8 0 1.3-.6l.7-.7.4-.3.6-.8q.5-.6.5-1.3 1.6-3.5 2.7-7.2l1-1q.7-1 .4-2v-.2c.5-1.3-.4-2.1-1.4-2.3q.7-1.6 1.8-3 1.7-2 1.7-4.6 0-.5-.2-.9.9-3.2 1.2-6.6 0-1.2-1.2-1.7l-.1-1.7.1-.6q.6-.3.8-1 .5-1.8.3-3.4v-.8q0-.8-.5-1.2v-.1l-.4-.9v-.3l-.4-.7q-.2-1.5-.9-3.1c.3-2.4.6-5-.3-7.4q-.6-1.2-1.7-1.3l-1.5-3.7v-4.1a2 2 0 0 0-.5-1.3l-.6-.6-1-2.5c-.3-.7-1-1.5-.8-2.3q.2-1-.5-2l-1.8-1.8-.1-.1q-.5-2.2-1.6-4l-.5-1v-.4q0-1.2-1-1.6a17 17 0 0 0-2.4-3.2q-.4-.6-1.2-.8v-.2q-.9-1.4-2.3-.8-.5-.2-.9-.2l-.4-1.5q.8-.6.7-2a8 8 0 0 0-1.5-3.4q-.3-.7-.9-1-.5-.4-1.2-.4-.5 0-.8.2a10 10 0 0 0-5.9-5.7h-1.2l-1.6-3c1.1-2.1-1.6-5.3-2.7-7-2-3.1-4.2-6.8-7.2-9l-.3-.2a48 48 0 0 0-4.7-5.6l-1-.5-1.7-1.6a2 2 0 0 0-2.3-.2l-1.3-1.4-.3-.2v-1.4q-.2-1-1-1.7v-.1q.5-.7.3-1.6-.3 0-.6-.3 0-.4-.4-.8l-.4-.3q-.6-.5-1.3-.4l-.4.2-.3-.3-1.3-1.2q-.5-.4-1-.5 0-.6-.2-1.2-1-1.8-2.6-3a2 2 0 0 0-1.7-.6l-1.5-1q-.8-.4-1.6-.1l-.3-.6v-.3h-.1c.7-.7 1-2 .1-2.9l-2.2-2.8v-.4q-.2-1.2-1.4-1.8l-2.9-1.4-2.2-2.3c-.5-1.9-1.2-4-3-4.8l-.2-.4v-.5q.9-.5.5-2l-.5-1.5q-.2-1.5-1-3l-.1-.2q-1-1.5-1.3-3v-1.6l-.3-.7c-.7-2-3.7-1.8-3.8.6q0 2.6 1 5l-.5.2q-1.2 1.4-1.5 3-.8.4-.7 1.6l.8 4.3q.3.9.8 1.2l-.2.3c-1.1 3.3.2 6.7 2 9.5l1.8 2.8q.2 3 2.2 5.4 0 2 1.8 3.2l.7.4 1 2q.4.8 1.1.9.8 2.4 2.3 4.5.7.9 1.6.9l2.5 4.3v.2q-.2 1.3 1 2.2l1.3 1 .3.6q.6 1 1.5 1l1.4 1.7c-1 .6-1.4 2-.4 3.1q1.6 2 2.8 4.3.5 1.1 1.8 1 1.4 3.2 1.8 6.9a2 2 0 0 0 2.4 1.8v.1q-.8.3-1.2 1l-.4.7q-.8.2-1.2 1.4v.5l.1 1 .4 3.2q.3 1.6 1.6 1.8-.9 2.9-2 5.5l-.3.7-.4 1.4q-.3 1.4.7 2l-.6 1.3c-2.2.4-3.7 2.6-4.9 4.4l-1 .5q-4.5 3.7-9 7-1-.4-2 .2l-.3.1h-.2l-1-.2a2 2 0 0 0-1.4.6 2 2 0 0 0-.6 1.4v.2q0 .6.4 1l-1.4 1.2-.9.1c.3-1.1-.3-2.5-1.8-2.5v-.3c-.6-1-2-1.1-2.8-.6h-.2l-1.2-.6c-1-.6-2-.1-2.5.7l-.9-.1-.9.2q-3-.3-6-1a2 2 0 0 0-.4-1.7l-.9-.9q-1-1-2-.4c-1.5-2.5-3.5-4.5-5.3-6.8-2.1-2.8-3-6.2-4-9.5q-.5-1.5-1.9-1.4a41 41 0 0 1 0-6.2q.4-.7.7-1.5c.9-2.6.5-5.9.6-8.5q-.2-1.5-1.4-1.8 1.2-2.4 3.4-4.3c1.8-1.6-.7-4-2.5-3q-2.7 1.3-4.9 3.4-.4 0-1 .3-6 4.6-8.8 11.6-1 1-1.8 2.1a2 2 0 0 0-2.4.8l-2.4 3.2q-.8.1-1.2 1a27 27 0 0 1-2.5 4.4l-.2.9-1.3 3.5-.2.1q-3 3-3.3 7-.8 1.7-1.3 3.4-1.5 4.3-2.1 8.8a2 2 0 0 0 .7 1.9 3 3 0 0 0-1.5 1l-.6 1v.4l-.5.1c-1.8.6-1.7 2.8-.2 3.6-2.8 1.3-3.1 5.7-3.2 8.5l.3 3.8c-1.3 3.2-.9 6.4-.5 9.7-.8 2-1 4.2.6 6.2" clip-rule="evenodd"/><path fill="#d56989" d="m2176.2 174.3.8 1.9q1 2.2 1.6 4.1l.2.8a54 54 0 0 1 1 12.1q0 4.2-.6 8.6a72 72 0 0 1-12.2 30.6l-3 3.6q-3 4-6.5 7a56 56 0 0 1-24.1 12.6 69 69 0 0 1-13.4 2.2 50 50 0 0 1-26.4-5.4 76 76 0 0 1-15.4-9 82 82 0 0 0 9.7 17q4.1 5.5 8.4 9.4a62 62 0 0 0 47 16 64 64 0 0 0 24.4-7.3q5.3-2.9 10.7-7.4a56 56 0 0 0 18.8-31.5 59 59 0 0 0 1-12.8q-.1-4-1-7.6-.7-4-1.5-7.8a98 98 0 0 0-15.8-34.3v-.1l-.6-.8-.3-.3-.1-.2-1.6-2.1a1 1 0 0 0-.9-.2q-.4.2-.2.9M1897.4 88.6c9-9 22-14.8 37.2-13.6l.7.1 1 .1a36.2 36.2 0 0 1 16 65.7l-6.5 386.7c-1 58.5-1.4 111.5 13 160.8 14.3 48.7 45 91.5 88 111l.8.4c16.7 7.4 44.2 14.1 63 15.5h.9c17 1.1 57.1 0 75.3-4 64.3-14.7 93.7-65 97.5-85a36.2 36.2 0 1 1 71 13.6c-8.8 46.5-58.5 120.5-152.5 142-27.8 6.3-75.7 7-96 5.7a291 291 0 0 1-89.9-22.2c-67.6-30.7-109.2-94.2-127.5-156.6-18.1-61.7-17-125.7-16-182.4l6.7-392v-.2l36.2.7-36.2-.7v-2.6a84 84 0 0 1 3.9-20.4 57 57 0 0 1 13.4-22.6"/><path fill="#f297a0" d="M1935 76.3c20 .4 36 16.8 35.7 36.8l-6.7 392.1c-1 58.5-1.4 111.5 13 160.8 14.2 48.3 44.5 90.9 87 110.6l1 .5 1 .4c41.1 18.3 93.4 16 143.8.6l1.3-.4c27.8-9 60-38.7 78.1-67.4a36.2 36.2 0 0 1 61.2 38.8c-23.7 37.4-69 83-119.6 98.3-59.8 18.2-132.3 24.4-195.7-4.4-67.6-30.7-109.2-94.1-127.5-156.6-18.1-61.7-17-125.7-16-182.4l6.7-392c.3-20 16.8-36 36.8-35.7"/><path fill="#d56989" d="M1482.7 413.4c44-33.8 101-50 156.2-44.4a36.2 36.2 0 1 1-7.3 72 149 149 0 0 0-104.8 29.8 149 149 0 0 0-55.7 93.6c-3.7 23.7-1 46.2 8.4 63.4l.4.8a73 73 0 0 0 80 32.8c25.4-7.2 48.3-30 62.7-60.7 7.4-16 12.6-33 16.7-51.3q4.5-28.7 10-57.2a36.2 36.2 0 0 1 71.4 12.6c-2.8 18.2-5.8 37.9-10.2 58q-2.8 18.5-5.1 37.1a204 204 0 0 0-1.4 48 50 50 0 0 0 11.5 29c7 7.5 23.7 13.3 41.4 9.6 16-3.3 23.5-11.8 24.7-23.5a36.2 36.2 0 1 1 72 6.8c-4.8 51.8-44 79.8-82 87.6-36.3 7.5-80.9-.9-109-31a109 109 0 0 1-20.3-31.2c-17.4 16-38.2 29-62.4 35.9a145.5 145.5 0 0 1-163-67c-19.9-35.2-23-75.7-17.3-111 8.7-54.5 38.5-105 82-138.9z"/><path fill="#f297a0" d="M1500.7 391.3c44-34 101-50.1 156.3-44.5a36.2 36.2 0 1 1-7.4 72 149 149 0 0 0-104.8 29.8 149 149 0 0 0-55.6 93.7c-3.8 23.6-1 46.1 8.3 63.3l.5.8a73 73 0 0 0 80 32.9l1.2-.4c24.9-7.6 47.3-30.3 61.4-60.4 7.5-16 12.6-33 16.7-51.3q4.4-28.7 10.1-57.2a36.2 36.2 0 0 1 71.3 12.6c-2.8 18.2-5.8 37.9-10.2 58q-2.9 18.5-5 37.1a203 203 0 0 0-1.5 48 51 51 0 0 0 11 28.5l.6.6c5 5.4 14.9 9.2 27.4 7.3 12.5-2 20.7-8.6 23.9-15.2a36.2 36.2 0 0 1 65.4 31c-15.6 33-47.7 51-78.3 55.7s-66.5-2.7-91.5-29.5q-13.3-14.6-20.2-31.1c-17.3 16-38.1 29-62.4 35.9a145.5 145.5 0 0 1-163-67c-19.9-35.1-22.9-75.6-17.3-111 8.8-55 39-105.8 83.1-139.6"/><path fill="#d56989" d="M1307 72c12.4-2.1 22.5 2.2 28.6 6.1a36.2 36.2 0 0 1 7.4 54.2c-.2 184.1-11 359.8-2.6 535l.2 4.2c2 39.5 6.3 73 21.4 99.8l.6 1.1a70 70 0 0 0 51 34.8 36.1 36.1 0 0 1 63.5 23.7 47 47 0 0 1-39 47.4l-5.6.8c-56.4 6.5-108.4-27.4-133.6-72.3-24.1-42.8-28.7-91.5-30.7-131.7l-.2-4.2c-8.5-178.5 2.6-364.1 2.6-543.2v-.5l36.2.5-36.2-.5v-2a117 117 0 0 1 2-16.7c.8-3.4 3-13.5 10-22.2 4.2-5.2 12.1-12.3 24.4-14.4m119.5 735h.2zm1 0h-.6zM1296 138.7q.3 0 .5.3z"/><path fill="#d56989" d="M1160 365c25.2-2.6 57.3-.6 87.4 7.4 29.2 7.8 63 23 83.4 52.1a36.2 36.2 0 1 1-59.1 41.8c-6.3-8.8-20.6-18-43-24-21.6-5.7-44.8-7-61.2-5.3a127 127 0 0 0-98.8 66.1c-20.8 38.5-22 84.4-.5 114.6 19.6 27.6 56.1 41.3 95.3 40h2.2c45-2 84.7-17.7 99.8-47.6a36.2 36.2 0 1 1 64.6 32.6c-34 67.3-111.2 85.7-164.2 87.4-54.3 1.8-117.6-16.5-155.8-69.2l-.9-1.2c-42-59.2-33.9-136.1-4.2-191 32-59.2 90.3-97 155-103.7"/><path fill="#f297a0" d="M1283.7 109.5a36.2 36.2 0 1 1 72.4 0c0 185.8-11.1 363-2.7 539.7l.2 4.2c2 39.5 6.4 73 21.5 99.8 15 26.6 41 41.3 61.5 38.8a36.2 36.2 0 1 1 8.7 71.9c-58.8 7.1-109.2-32.3-133.3-75.2-24.1-42.8-28.7-91.5-30.7-131.7l-.2-4.2c-8.5-178.5 2.6-364.1 2.6-543.3"/><path fill="#f297a0" d="M1170.9 346.4c25.5-2.7 57.9 0 88 8.5 29.1 8.4 62.4 24.2 82.7 53a36.2 36.2 0 1 1-59.1 41.7c-6.5-9.1-21.2-18.6-43.6-25a171 171 0 0 0-60.5-6.2c-41.1 4.3-77.9 28-98.4 65.3l-.5.8c-20.8 38.5-22 84.4-.4 114.6l.4.7c19.7 27.1 56 40.6 94.9 39.4 45.8-1.5 86.5-17.3 101.9-47.7a36.2 36.2 0 0 1 64.6 32.6c-34 67.3-111.2 85.8-164.2 87.5-54.3 1.7-117.5-16.6-155.8-69.3l-.9-1.2c-42-59.2-33.8-136.1-4.2-191 32-59.2 90.3-97 155-103.7"/><path fill="#d56989" d="M799.8 439.1c3.9-.2 14.2-1.3 26.9 6l.6.3a31 31 0 0 1 13 15.4 5.7 5.7 0 0 1-10.6 4 20 20 0 0 0-8.2-9.7c-9.8-5.8-17.4-5-21-4.7-9.4.7-17 6.8-19.6 10-2.6 2.9-4.4 6.7-6.2 11.2a165 165 0 0 0-8.8 36.5 5.7 5.7 0 0 1-11.2-1.7c2-13.2 4.5-26.3 9.5-39 1.8-4.7 4.2-10 8.2-14.6a43 43 0 0 1 27.4-13.7M791 380.8c3 0 5.7 2.4 5.7 5.5.3 8.8-2.8 19-7.5 27.7a57 57 0 0 1-18.8 21.8c-1.7 1-6.7 4.7-14.2 6.4a63 63 0 0 1-17.2 1l-2-.5-1.4-.6c-3.8 0-4.6.2-8.8-.2a5.7 5.7 0 0 1 1-11.2c4.3.4 3 .1 10.5 0h1.7l1.9.7.9.6c3.1.1 7.6 0 10.9-.8 5.3-1.2 8.7-3.7 10.8-5a46 46 0 0 0 14.7-17.4c4.1-7.8 6.4-16 6.2-22.2 0-3.1 2.4-5.7 5.5-5.8"/><path fill="#d56989" d="M589.9 415.9c44-33.9 101-50 156.2-44.4a36.2 36.2 0 1 1-7.3 72A149 149 0 0 0 634 473.3a149 149 0 0 0-55.7 93.6c-3.8 24-.9 47 8.8 64.1a73 73 0 0 0 80 32.9l1.3-.4c24.9-7.6 47.3-30.2 61.4-60.3 7.4-16 12.6-33 16.7-51.4q4.5-28.7 10-57.1a36.2 36.2 0 0 1 71.4 12.6c-2.8 18.2-5.8 37.8-10.2 57.9q-2.8 18.6-5.1 37.2a204 204 0 0 0-1.4 47.9 51 51 0 0 0 11 28.5l.5.6c7 7.5 23.7 13.3 41.4 9.6 16-3.3 23.5-11.8 24.7-23.6a36.2 36.2 0 0 1 72 6.9c-4.8 51.8-44 79.7-82 87.6-36.3 7.5-80.9-1-109-31.1q-13.4-14.6-20.3-31.1c-17.4 16-38.2 28.9-62.4 35.8a145.5 145.5 0 0 1-163-66.9c-19.9-35.2-23-75.7-17.3-111.1l.2-1.3c9-54.4 39.2-104.7 82.9-138.3"/><path fill="#f297a0" d="M607.9 393.7c44-33.9 101-50 156.2-44.4a36.2 36.2 0 1 1-7.3 72 150 150 0 0 0-103.4 28.8l-1.4 1a149 149 0 0 0-55.6 93.6c-3.9 24-1 47 8.7 64.2a73 73 0 0 0 80.1 32.8l1.2-.3c24.9-7.7 47.3-30.3 61.4-60.4a247 247 0 0 0 16.7-51.4q4.4-28.6 10.1-57.1A36.2 36.2 0 0 1 846 485c-2.8 18.2-5.8 37.8-10.2 57.9a1226 1226 0 0 0-5 37.2 203 203 0 0 0-1.5 47.9c1.7 13.7 5.8 22.9 11.6 29.2 5 5.4 14.9 9.2 27.4 7.3 12.5-2 20.7-8.6 23.9-15.2a36.2 36.2 0 0 1 65.4 31c-15.7 33-47.7 51-78.3 55.7s-66.6-2.8-91.5-29.5q-13.3-14.7-20.2-31.1c-17.3 16-38.1 29-62.4 35.8a145.5 145.5 0 0 1-163-66.9c-19.9-35.2-22.9-75.7-17.3-111l.3-1.4c9-54.4 39-104.7 82.8-138.3"/><path fill="#d56989" d="M377.2 173.3a114 114 0 0 1 17.6-34.6s3.4-3 1.8-1.7c1.1-.9 1.3-1.1 3.7-1.4q-1.9.3.7.2-1 .3-1.7-.4 1.8 1.3.8.4l.6.6q1.6 2 .3.4.7 1 1.3 2.4c-1-2.8.8 4.4.4 2q.2 2.3.2 4.8a71 71 0 0 1-.5 8.1c-4.3 29-17.4 56.1-28 83.1-2.9 7.1 3 15.5 9.8 17.4 8 2.2 14.6-2.7 17.4-9.9 10-25.5 22-51 27.2-78.2 3-15.4 4.7-33.3-5.3-46.5-12.1-16-33.4-15.4-47.6-2.4a77 77 0 0 0-14.8 21.1 160 160 0 0 0-11.2 27.1c-2.2 7.3 2.7 15.4 9.9 17.4 7.6 2.1 15.1-2.5 17.4-9.8M62.5 148.9v-34a44 44 0 0 1 88.1 0v34a44 44 0 0 1-88.1 0"/><path fill="#d56989" d="M99 86.7c19.9 0 35.9 16 35.8 35.8-.2 209.3 6.6 491.3 2 709a35.8 35.8 0 1 1-71.5-1.5c4.6-217.3-2.2-495-2-707.6 0-19.8 16-35.8 35.8-35.7"/><path fill="#d56989" d="M350.4 179.5a36.2 36.2 0 0 1 68.3 24 495 495 0 0 1-47.5 98.3c-58 92.7-147.4 167.8-253 203.1a36.2 36.2 0 0 1-23-68.7c88.3-29.5 164.6-93 214.7-172.8a422 422 0 0 0 40.5-83.9"/><path fill="#d56989" d="M146.3 404c17.9-9 39.6-1.7 48.6 16.1C265.7 562 365.4 662.8 504 741.6 641.8 819.9 805.7 852.5 961 827a1234 1234 0 0 0 46.3-9.4 36.2 36.2 0 0 1 29.4 66.2c-4.3 2.1-9 3.3-10.2 3.7l-7.9 1.9-18.2 3.8c-12.3 2.5-24.9 4.7-27.7 5.2-171.3 28.2-350.4-7.4-500.8-91.9l-3.5-2C318 719.2 207.8 608 130 452.5a36 36 0 0 1 16.2-48.6m858.6 414.6-.6.4zM85.2 861.9c14.9 9 32.5 7 47.4-1 6.9-3.6 13-9 17.1-15.6 4.8-7.5 6.1-16 4.8-24.6-1-5.6-8.1-9.1-13.2-7.5-6 2-8.4 7.2-7.5 13.2q-.1-2 0 0v1.8c0 1.2.4-2 0 0l-.4 1.7-.7 2.1c-.4 1.4 1.1-2-.1.2l-2 3.4c-.8 1.3 1.5-1.7-.3.3l-1.1 1.2-2.9 2.6c-.9.8 1.5-1-.2 0l-1.4 1q-1.8 1.2-3.7 2.1l-1.5.8c-1.9.9 1-.3-.2.1q-1.9.8-3.8 1.3-2 .7-4.3 1.2a29.9 29.9 0 0 1-7 .3c-1.1-.1-.7-.3.2 0l-2.2-.5q-2-.4-4-1.2 1.5.5.2 0l-2.4-1.4c-4.8-2.9-12-1.2-14.6 3.8a11 11 0 0 0 3.8 14.7"/><path fill="#d56989" d="M1042.1 802.3c1-3.6 4.8-5.7 8.5-4.7 13.8 3.8 18.7 14.7 20.3 17.5 2.4 4 4.4 10.9 5.3 15q1.5 5.9 1.7 11.9c0 4.2-.7 8.4-2.4 13.4-2.5 7.4-7 14.3-17 20.4-9.5 5.8-23.9 10.8-46.2 15.3a6.9 6.9 0 0 1-2.7-13.5c21.8-4.3 34.4-9 41.8-13.5a23 23 0 0 0 11.1-13.1 26 26 0 0 0 .3-17.9c-.8-3.8-2.5-9-3.8-11.2-2-3.5-4.5-9-12.1-11.1a7 7 0 0 1-4.8-8.5"/><path fill="#d56989" d="M1063 834a11 11 0 0 1 11.3 10.6c.4 11-6.1 20.2-14.8 25.9a11 11 0 1 1-12-18.4c4.2-2.7 5-5.5 4.9-6.7a11 11 0 0 1 10.5-11.3M374.2 106a38 38 0 0 1 24.9-3.2q5.3.8 9.7 2.5A34.4 34.4 0 0 1 425 120a54 54 0 0 1 6.7 18.5 5.7 5.7 0 0 1-11.1 1.9c-1-6-3.2-11-5.3-14.6a25 25 0 0 0-4.8-6.1l-1-.7a27 27 0 0 0-5.2-3.2c-1.8-.7-3.8-1.2-7-1.7-6.7-1-13.1-.9-17.4 1.7a5.7 5.7 0 1 1-5.8-9.8"/><path fill="#f297a0" d="M82 112.7a36.2 36.2 0 0 1 72.3 0c0 214.5 7 488.5 2.7 711.5a36.2 36.2 0 0 1-72.4-1.4c4.3-222.5-2.7-492.3-2.7-710.1"/><path fill="#f297a0" d="M353 129.2a36.2 36.2 0 0 1 70 18.5C383.1 298.1 274.8 425.5 138.2 479a36.2 36.2 0 0 1-26.3-67.5c113-44.1 206.6-152 241.1-282.2"/><path fill="#f297a0" d="M160.9 400.5a36 36 0 0 1 49 15c74.4 139.8 176.6 238.1 317.3 313.4 139.7 74.7 304.4 103 458.9 73.5l1-.2 31.4-7 5-1.1a36.2 36.2 0 1 1 23.2 68.6c-5 1.7-17 4.4-25.2 6.2l-21.8 4.6c-171.9 32.9-353.3 1.2-506.6-80.8C340.7 711.2 227.6 603 145.9 449.5a36 36 0 0 1 15-49"/></svg>